<svg width="250" height="192" viewBox="0 0 250 192" fill="none" xmlns="http://www.w3.org/2000/svg">
<g opacity="0.3">
<path d="M116.447 1.04829C110.959 4.99959 108.42 5.96724 104.283 5.60437C101.089 5.28181 98.4265 4.19319 95.8873 2.05627L93.9214 0.443512L84.7475 0.725754C75.5735 1.00798 75.5735 1.00798 75.123 1.97565C74.8363 2.62074 74.6725 7.7816 74.6725 17.3776V31.8522L75.6145 32.0941C76.1059 32.215 80.57 32.336 85.4847 32.336H94.4948L96.5835 30.1588C99.5323 27.1348 100.884 26.4897 104.406 26.53C106.863 26.53 107.764 26.7316 110.017 27.8203C112.843 29.1911 115.013 31.3683 115.628 33.5052C115.792 34.1504 116.078 36.8517 116.242 39.5128L116.529 44.3108L115.054 46.4477C114.235 47.617 113.662 48.8669 113.744 49.2297C114.972 53.0601 116.201 69.4296 115.341 69.4296C115.095 69.4296 113.252 68.7039 111.246 67.7766C109.28 66.8492 106.904 65.8816 106.044 65.559L104.447 64.9945L104.693 68.4217C104.979 72.373 105.102 72.3326 101.211 70.3973L99.2456 69.4296V66.688C99.2456 57.8984 95.8873 50.1974 89.6211 44.714C87.2048 42.6174 79.8738 38.7467 76.3517 37.6984C72.4199 36.5695 57.8399 37.0533 56.4884 38.3839C56.0379 38.8274 56.857 40.1176 65.3756 51.8505L71.8056 60.6804V63.3818C71.8056 66.3654 71.6828 66.5267 67.5463 69.5506C65.6214 71.0021 65.4576 71.0424 62.0173 71.0424H58.4542L51.7376 62.1722C44.3247 52.4553 44.038 52.2134 42.154 54.6325C41.1711 55.9227 41.0892 56.2856 41.0892 60.7207C41.0892 68.3007 42.5226 73.8648 46.2905 81.2432C47.0687 82.7753 47.642 84.0655 47.5601 84.1462C47.4782 84.1865 46.0038 85.2751 44.2427 86.525C42.4817 87.8152 41.1301 89.0651 41.2121 89.307C41.294 89.5489 42.3588 90.3553 43.5875 91.0407C45.0619 91.9278 46.3724 93.097 47.5192 94.7098L49.1983 97.0886L46.7001 97.6128C40.0653 98.903 36.9937 99.7497 36.9937 100.274C36.9937 100.556 37.8128 101.806 38.8776 103.056C39.9015 104.306 40.5568 105.314 40.393 105.314C40.2291 105.314 38.7957 105.677 37.1984 106.12C35.6421 106.564 34.0449 106.927 33.6763 106.927C32.8162 106.927 27.4511 100.314 22.5774 93.2986C19.0553 88.2184 17.5809 86.7669 15.9017 86.7669C15.4512 86.7669 15.2874 87.2104 15.2874 88.42C15.2874 89.7102 15.656 90.5166 17.0485 92.331C18.0314 93.5808 20.7344 97.3305 23.0689 100.677C25.4033 103.983 27.6149 107.168 28.0245 107.693C28.5159 108.257 28.7207 108.983 28.5569 109.547C28.3931 110.273 28.7207 110.797 30.277 112.087C31.3828 113.015 32.1609 113.821 32.079 113.902C31.9562 113.982 28.6798 115.716 24.789 117.813C20.9392 119.869 17.7447 121.724 17.7447 121.885C17.7447 122.328 20.8573 124.546 21.9221 124.869C22.3317 125.03 22.6593 125.272 22.5774 125.473C22.4955 125.675 19.9153 127.489 16.8027 129.505L11.11 133.215L12.011 134.142C12.4615 134.626 13.6082 135.352 14.5092 135.755C15.3693 136.158 16.1065 136.601 16.1065 136.763C16.1065 136.884 14.5092 138.295 12.5434 139.867C8.24309 143.294 6.93253 144.625 7.26017 145.189C7.42399 145.431 8.40692 145.996 9.4308 146.439L11.3147 147.246L7.34208 151.278C5.17145 153.455 3.41038 155.43 3.41038 155.672C3.41038 155.874 4.59808 156.438 6.07247 156.922L8.6936 157.769L5.04859 162.365C3.00082 164.906 1.36261 167.042 1.36261 167.163C1.36261 167.244 2.55032 167.526 4.02471 167.808C5.49909 168.091 6.6868 168.494 6.6868 168.736C6.6868 168.978 5.41718 171.115 3.81993 173.534C2.26363 175.953 0.953063 177.969 0.953063 178.05C0.953063 178.13 1.77217 178.291 2.79605 178.412C3.86088 178.493 4.80286 178.695 4.92572 178.816C5.04859 178.977 4.02471 180.791 2.63223 182.888C-0.848967 188.17 -0.808012 187.847 2.34554 188.17C5.00763 188.452 5.04859 188.492 4.80286 189.541C4.63903 190.105 4.35235 190.911 4.14757 191.274C3.81993 191.96 9.67652 192 124.843 192H245.906L247.913 190.145C249.51 188.694 249.961 187.968 249.961 187.041V185.831L246.889 186.073L243.777 186.355L244.268 185.468C244.555 184.944 245.947 182.888 247.381 180.872C249.551 177.767 249.961 176.921 249.961 175.469V173.776L247.299 174.058C245.824 174.219 244.637 174.219 244.637 174.098C244.637 173.977 245.824 171.478 247.299 168.615C249.674 163.938 250.534 161.357 249.674 161.357C249.469 161.357 248.241 161.64 246.889 161.962C245.538 162.285 244.227 162.527 243.981 162.567C243.695 162.567 244.268 159.987 245.374 156.116C246.398 152.568 247.176 149.584 247.053 149.504C246.93 149.383 245.579 149.786 243.981 150.431C240.377 151.882 239.313 152.124 239.517 151.52C240.255 149.423 242.958 137.811 242.794 137.609C242.671 137.488 240.992 138.174 239.026 139.101C237.101 140.069 235.463 140.754 235.381 140.674C235.299 140.593 235.668 138.496 236.2 135.997L237.183 131.481L239.681 128.9C243.244 125.272 243.654 123.699 241.647 121.522C240.705 120.554 238.985 120.353 237.551 121.119C237.06 121.361 235.504 122.53 234.07 123.74C232.637 124.909 231.367 125.877 231.203 125.877C231.04 125.877 230.999 124.909 231.081 123.78C231.203 121.925 231.449 121.401 233.005 119.748C234.644 118.014 234.807 117.651 234.807 115.797C234.807 113.619 233.865 112.168 232.473 112.168C230.876 112.168 228.418 113.136 227.026 114.224L225.593 115.434L225.306 113.499C225.183 112.41 225.019 110.515 225.019 109.225C224.978 107.572 224.814 106.927 224.405 106.927C224.118 106.927 222.603 107.934 221.046 109.144C219.531 110.354 218.221 111.281 218.139 111.241C218.098 111.16 217.77 108.701 217.401 105.757C216.419 97.895 216.664 98.1369 213.183 101.443C211.217 103.298 210.193 104.024 210.07 103.661C209.948 103.338 209.292 100.556 208.637 97.4918L207.367 91.8874L212.118 81.5657C214.739 75.8807 217.483 69.9538 218.262 68.341C219.04 66.7686 219.654 65.1961 219.654 64.9139C219.654 64.5913 218.302 63.785 216.705 63.0995C212.692 61.3658 203.149 57.0113 190.781 51.286C179.559 46.0848 179.108 45.9236 178.412 46.3671C178.125 46.5284 175.504 52.2134 172.555 58.9467C169.607 65.68 167.108 71.2843 166.986 71.4053C166.904 71.5263 166.248 71.2037 165.593 70.7199C164.938 70.236 164.283 69.8328 164.16 69.8328C163.996 69.8328 163.341 71.0424 162.685 72.4939L161.457 75.155L160.146 73.3003C156.337 67.8169 154.003 64.9542 153.675 65.2768C153.429 65.5187 153.061 66.9299 152.856 68.462C152.61 69.9941 152.242 71.4053 152.078 71.6069C151.873 71.8085 149.743 70.0748 147.245 67.6556C144.788 65.3171 142.494 63.3818 142.126 63.3818C141.634 63.3818 141.511 63.0995 141.634 62.2528C141.716 61.6481 142.126 58.3822 142.494 54.9954L143.232 48.8669L141.634 47.2541L140.078 45.6816L140.569 40.3192C141.102 34.3923 142.331 27.6993 143.15 26.0059L143.723 24.8769L148.392 24.9173C154.412 24.9979 158.467 26.1268 165.798 29.7152C171.654 32.5779 177.798 36.8921 183.163 41.8513C185.948 44.4317 186.603 44.8349 187.095 44.4317C187.955 43.7463 187.709 43.1012 184.31 37.1743C180.788 30.9651 179.026 28.3847 175.095 23.5464C166.822 13.386 156.788 5.80597 147.45 2.66107C142.576 1.00798 138.89 0.564468 128.119 0.282242L117.88 0L116.447 1.04829ZM140.488 2.2982C146.262 3.38681 151.75 5.56406 156.993 8.87022C158.221 9.63629 160.228 10.8862 161.416 11.6523C164.323 13.5069 170.426 19.5548 174.153 24.2722L177.183 28.1025L173.006 23.7883C164.324 14.7971 154.412 8.1848 144.706 4.8383L140.815 3.50777L129.225 3.38681L117.635 3.26585L115.955 4.71735C112.638 7.70097 107.805 9.15247 103.464 8.46703C99.6142 7.86224 94.6996 5.2415 95.6825 4.27383C95.8054 4.15288 96.9931 4.59639 98.3036 5.28181C101.826 7.01555 105.225 7.62033 108.092 7.01555C111.164 6.41075 113.539 5.2415 115.71 3.30618L117.471 1.73373L127.341 1.69341C134.549 1.69341 138.153 1.85469 140.488 2.2982ZM92.6928 2.49979C92.6928 2.74171 89.744 2.90298 84.7065 2.90298C79.669 2.90298 76.7202 2.74171 76.7202 2.49979C76.7202 2.25787 79.669 2.0966 84.7065 2.0966C89.744 2.0966 92.6928 2.25787 92.6928 2.49979ZM77.2117 17.6195C77.2117 21.8127 77.0479 25.9252 76.8022 26.6913C76.5155 27.7396 76.3926 25.522 76.3926 17.8211C76.3926 10.5636 76.5155 7.90256 76.7612 8.74927C77.0069 9.39438 77.2117 13.386 77.2117 17.6195ZM150.931 21.4498C156.01 22.4981 159.122 23.5061 163.341 25.6027C166.986 27.3767 171.777 30.4007 172.596 31.4087C173.006 31.8925 172.76 31.8118 171.9 31.2071C169.934 29.8765 162.849 26.4897 159.9 25.522C155.6 24.0706 150.89 23.0626 147.163 22.8207C143.723 22.5384 143.641 22.5788 142.986 23.5464C141.593 25.643 140.324 32.0538 139.587 40.6821L139.3 44.0286L128.774 43.9479L118.29 43.9076L128.242 43.5044L138.153 43.1012V41.3675C138.153 38.5048 139.3 30.7232 140.201 27.5783C140.651 25.9252 141.511 23.7077 142.044 22.6191C143.068 20.6837 143.109 20.6434 144.952 20.6434C145.976 20.6434 148.679 21.0063 150.931 21.4498ZM91.4641 23.8286V25.0382L85.4437 25.1592C82.0854 25.2398 79.3414 25.2801 79.3004 25.2801C79.2595 25.2801 79.3414 24.7963 79.4642 24.1915L79.669 23.1029L84.6656 22.9416C87.3686 22.9013 90.0307 22.7803 90.5631 22.74C91.3003 22.6594 91.4641 22.861 91.4641 23.8286ZM107.887 24.0302C110.795 24.6754 113.662 26.2881 114.972 28.0218C116.16 29.554 117.839 33.1021 117.512 33.4246C117.43 33.5456 117.061 33.0214 116.734 32.2957C115.792 30.1588 113.457 27.7799 111.082 26.53C106.904 24.2722 100.72 24.7157 97.116 27.538C95.232 28.9895 95.0272 28.425 96.8293 26.9332C98.3856 25.643 100.147 24.7157 102.317 24.0302C104.447 23.3851 105.102 23.3851 107.887 24.0302ZM92.8157 30.7635C92.529 31.0458 90.1945 31.0861 85.0751 30.8039L77.7441 30.441L85.5256 30.4007C91.0136 30.32 93.1433 30.441 92.8157 30.7635ZM122.918 36.247C122.795 39.5934 122.754 39.795 121.894 39.916C120.993 40.037 120.952 39.9563 120.952 36.4082C120.952 32.7392 120.952 32.7392 121.976 32.7392H123.041L122.918 36.247ZM76.8431 39.1499C81.512 40.3595 85.3208 42.4561 88.802 45.8832C92.488 49.4716 93.9624 51.5683 95.4777 55.3583C97.7303 60.882 98.1808 67.6556 96.7883 74.268C95.8873 78.5821 95.7644 82.735 96.4197 88.7829C96.7883 92.4922 97.4026 94.5082 101.908 107.289C110.263 130.957 113.99 141.238 121.361 160.954C123.655 167.042 126.686 175.227 128.119 179.098C129.552 182.969 131.109 187.121 131.559 188.291C132.583 190.871 132.583 190.79 131.723 190.79C130.904 190.79 124.638 174.3 113.826 143.617C110.549 134.424 105.676 120.917 102.932 113.619C100.188 106.322 97.1979 98.0563 96.2968 95.2743C94.6586 90.315 94.6177 90.0731 94.5767 84.3478C94.5767 80.0336 94.8225 77.0097 95.5187 72.8971C97.6484 60.2772 95.6825 53.9471 87.2457 46.2461C80.9796 40.5208 75.9011 38.9483 64.4746 39.2709C60.6658 39.3919 58.0447 39.3515 58.4133 39.1499C60.8296 37.8194 71.5189 37.8194 76.8431 39.1499ZM137.416 46.4477L138.235 47.4557L127.505 47.5766C121.566 47.617 116.652 47.5766 116.57 47.496C116.447 47.4154 116.693 46.8509 117.102 46.2461L117.798 45.1978L127.177 45.3188L136.597 45.4397L137.416 46.4477ZM141.307 50.1571C140.406 55.197 139.341 67.2927 138.972 76.5258C138.767 82.5334 138.563 104.749 138.563 125.917C138.522 162.365 138.481 164.462 137.785 165.752C137.047 167.123 137.047 166.357 136.843 133.094C136.556 85.3154 137.252 66.6073 139.832 51.3667C140.16 49.5926 140.447 48.8669 140.897 48.8669C141.389 48.8669 141.47 49.1894 141.307 50.1571ZM199.914 57.1323C207.122 60.4385 212.978 63.2205 212.937 63.3011C212.692 63.5027 207.081 62.2125 203.722 61.1642C201.839 60.5594 198.972 59.5111 197.374 58.7854C194.221 57.3339 187.996 53.3826 185.661 51.3263L184.228 50.0764L185.538 50.5603C186.235 50.8425 192.705 53.7858 199.914 57.1323ZM122.14 106.604V158.333L121.116 155.551L120.133 152.729V103.822V54.9147H121.157H122.181L122.14 106.604ZM74.3448 63.785C74.3858 64.8736 74.4268 66.0428 74.4268 66.3654C74.4677 66.688 67.833 71.8891 59.7238 77.937L45.0209 88.9441L56.6112 94.5082C73.2391 102.491 78.1127 106.08 81.553 112.813C83.5188 116.684 83.9284 117.974 88.3925 133.336C91.1365 142.73 95.8054 158.051 97.9351 164.583C98.017 164.906 97.6484 164.543 97.075 163.736C96.3788 162.769 93.7986 155.068 89.0478 139.746C85.198 127.368 81.7168 116.482 81.3072 115.595C79.7509 111.966 77.6622 109.184 74.0991 105.878C70.9865 102.975 69.6759 102.088 66.0719 100.395C54.8502 95.1533 43.137 89.428 43.137 89.1457C43.137 89.0248 43.6284 88.5409 44.2837 88.1378C44.898 87.7749 51.4509 82.8963 58.8228 77.3725C67.2186 71.1231 72.4199 66.9702 72.6657 66.3251C72.8705 65.8009 73.0343 64.551 73.0343 63.543C73.0343 62.2528 73.1981 61.769 73.6486 61.769C74.0991 61.769 74.2629 62.2932 74.3448 63.785ZM43.0141 65.4784C42.9322 66.0025 42.8503 65.68 42.8503 64.7929C42.8093 63.9059 42.8912 63.5027 43.0141 63.8656C43.096 64.2688 43.096 64.9945 43.0141 65.4784ZM173.661 81.6464C170.713 89.5489 168.05 96.0403 167.805 96.0403C167.559 96.0403 167.108 95.7984 166.863 95.4759C166.453 94.992 167.559 92.1294 172.392 81.2432C178.781 66.688 178.699 66.8895 178.945 67.1315C179.026 67.2121 176.651 73.7438 173.661 81.6464ZM46.8639 76.7677C47.5601 78.1386 48.584 79.953 49.1164 80.7593C49.9765 82.1302 50.0174 82.735 49.2393 82.735C48.7888 82.735 45.5943 76.4855 44.5704 73.5019C44.0789 72.0101 43.5056 69.9538 43.3827 68.9861C43.1779 67.6556 43.4236 68.0991 44.3247 70.7199C45.0209 72.6552 46.1676 75.3969 46.8639 76.7677ZM169.73 81.7673C165.347 93.6212 164.733 94.8307 163.627 93.5405C163.3 93.097 164.446 90.194 168.583 81.2432C171.532 74.7518 174.03 69.5103 174.071 69.5909C174.153 69.6716 172.187 75.155 169.73 81.7673ZM176.61 83.5817C173.866 91.0004 171.573 97.1289 171.491 97.1693C171.204 97.5321 169.689 96.7257 169.689 96.2419C169.689 95.5565 181.238 69.7925 181.443 69.9941C181.525 70.0748 179.354 76.163 176.61 83.5817ZM183.368 85.7992C180.501 93.5405 178.125 99.9513 178.084 99.9916C177.798 100.274 176.241 99.5884 176.241 99.1852C176.241 98.6208 188.2 71.4053 188.364 71.5666C188.446 71.6472 186.194 78.0176 183.368 85.7992ZM85.5666 78.0983C88.2287 81.5254 90.4402 84.5897 90.4402 84.8316C90.4402 85.1138 88.5154 86.7669 86.1399 88.5409C83.7645 90.315 79.6281 93.4196 76.925 95.5162C72.7066 98.7014 71.9285 99.1852 71.3142 98.7417C70.3722 98.0966 61.1573 86.3234 61.1573 85.7992C61.1982 85.2751 79.5052 71.8488 80.2014 71.8488C80.4472 71.8488 82.8635 74.6712 85.5666 78.0983ZM179.805 85.6783C174.808 99.3062 174.398 100.113 173.088 98.8223C172.76 98.4998 173.375 96.8064 175.177 92.6938C182.999 75.155 184.555 71.8085 184.678 71.9294C184.719 72.0101 182.549 78.1789 179.805 85.6783ZM189.552 78.3805C188.323 81.7673 186.03 88.42 184.351 93.097C182.098 99.5884 181.197 101.685 180.706 101.685C178.904 101.685 179.19 100.717 185.088 86.9685C188.323 79.4288 191.067 73.0181 191.149 72.7358C191.272 72.4939 191.436 72.252 191.559 72.252C191.641 72.252 190.74 75.034 189.552 78.3805ZM189.47 89.307C186.808 96.9273 184.473 102.895 184.187 102.895C183.941 102.895 183.491 102.653 183.245 102.33C182.876 101.927 184.023 98.903 188.405 88.6619C191.477 81.4044 194.057 75.5582 194.139 75.6388C194.221 75.6791 192.132 81.848 189.47 89.307ZM192.665 90.436C187.873 104.185 187.299 105.354 186.153 103.983C185.825 103.58 187.054 100.274 191.477 89.8715C194.671 82.4124 197.333 76.3646 197.415 76.4049C197.456 76.4855 195.368 82.8156 192.665 90.436ZM195.9 91.4036C193.197 99.1046 190.985 105.475 190.985 105.556C190.985 105.636 190.535 105.717 189.961 105.717C189.265 105.717 188.938 105.475 188.938 105.032C188.938 104.628 191.518 98.2982 194.671 90.9198C197.825 83.5817 200.405 77.3322 200.446 77.0097C200.446 76.6871 200.528 76.6468 200.651 76.929C200.774 77.2113 198.644 83.7026 195.9 91.4036ZM198.972 92.5729C196.146 100.516 193.852 107.088 193.852 107.168C193.852 107.531 192.255 107.289 192.009 106.886C191.764 106.523 203.681 77.7757 203.968 78.0176C204.009 78.0983 201.757 84.63 198.972 92.5729ZM206.589 81.2029C199.135 102.33 197.006 108.378 196.883 108.459C196.596 108.822 195.081 108.015 195.081 107.531C195.081 107.209 197.579 101.121 200.651 93.9437C203.722 86.7669 206.385 80.5174 206.589 79.9933C207.286 78.1789 207.286 79.1466 206.589 81.2029ZM169.484 98.6208C173.334 100.354 181.156 104.024 186.931 106.806L197.456 111.845L197.252 113.458C197.088 114.426 196.555 115.514 195.859 116.24C195.204 116.926 194.671 117.934 194.671 118.458C194.671 119.546 193.893 121.441 193.197 122.046C192.419 122.691 186.767 135.069 187.054 135.472C187.422 136.077 186.89 137.166 186.235 137.166C185.702 137.166 183.941 140.069 184.105 140.674C184.269 141.238 182.63 143.617 182.057 143.617C181.77 143.617 173.252 139.867 163.177 135.311L144.788 126.965L144.911 125.433C144.952 124.546 145.197 123.619 145.443 123.336C146.303 122.248 147.204 120.111 146.999 119.587C146.877 119.304 147.081 118.78 147.409 118.458C148.31 117.53 153.307 106.08 153.307 104.911C153.307 104.346 153.634 103.338 154.044 102.612C156.542 98.1772 156.993 97.1693 156.747 96.7661C156.583 96.5241 156.747 96.121 157.074 95.879C157.402 95.6371 157.771 95.113 157.934 94.7501C158.18 94.105 158.303 94.105 160.351 94.7904C161.539 95.1936 165.675 96.9273 169.484 98.6208ZM116.037 116.2C116.037 134.465 115.955 137.166 115.423 137.166C115.095 137.166 114.522 136.48 114.194 135.634C113.498 134.061 100.884 99.5078 100.597 98.4192C100.433 97.895 101.252 97.6128 104.856 96.9273C110.918 95.7178 113.129 95.3146 114.727 95.2743L116.037 95.2339V116.2ZM143.723 95.6774C148.433 96.4838 154.945 98.1369 154.945 98.4998C154.945 98.7014 154.617 99.1852 154.208 99.5884C152.733 101.04 152.078 102.29 152.078 103.661C152.078 105.152 147.941 114.627 146.139 117.208C145.402 118.297 145.156 119.103 145.32 119.829C145.484 120.635 145.279 121.119 144.378 121.966C143.354 122.933 143.191 123.377 143.15 125.877C143.068 127.973 143.272 129.102 143.846 130.231C145.32 133.174 147.122 139.988 146.344 139.988C146.221 139.988 144.829 139.545 143.232 139.061L140.406 138.093L140.283 116.684C140.201 99.1046 140.283 95.2339 140.733 95.2339C141.02 95.2339 142.371 95.4355 143.723 95.6774ZM26.8777 102.29C26.6729 102.814 25.9358 103.177 25.9358 102.733C25.9358 102.129 26.5091 101.322 26.7958 101.483C26.9596 101.604 27.0415 101.967 26.8777 102.29ZM92.9795 102.33C93.7576 102.733 94.6996 103.459 95.0682 104.024C96.133 105.636 127.013 190.589 126.604 190.75C126.399 190.79 126.194 190.79 126.112 190.75C126.071 190.669 118.945 171.357 110.344 147.85C93.1433 100.838 94.0443 102.895 90.6041 102.895C89.703 102.895 88.3925 103.177 87.7372 103.54C86.5085 104.144 85.3208 106.16 85.3208 107.572C85.3208 107.975 90.7679 124.869 97.4026 145.149C104.078 165.43 109.443 182.081 109.362 182.162C108.829 182.727 107.314 179.783 106.003 175.671C103.874 168.897 94.9044 141.319 91.0546 129.707C86.1399 114.91 84.0922 108.338 84.0922 107.491C84.0922 107.088 84.4608 105.959 84.8703 105.032C86.2219 102.129 89.8669 100.919 92.9795 102.33ZM30.6047 107.088C30.4818 107.451 30.1951 107.733 29.9903 107.733C29.417 107.733 29.0893 106.644 29.376 105.878C29.5808 105.314 29.7036 105.314 30.2361 105.878C30.5637 106.201 30.7275 106.765 30.6047 107.088ZM77.7032 112.652C79.9557 116.885 81.2663 120.554 87.0819 138.779L90.0716 148.254L86.5905 151.52L83.0683 154.785L78.6451 148.254L74.181 141.722L71.8875 141.359L69.594 140.996L65.5804 135.15C63.3279 131.924 61.2801 129.062 60.9525 128.739C60.6658 128.457 58.6999 127.61 56.6522 126.885L52.8843 125.635L56.0379 122.49C57.7989 120.796 60.8706 118.055 62.9593 116.442C66.8091 113.378 74.0991 108.62 74.9592 108.58C75.2459 108.539 76.4745 110.394 77.7032 112.652ZM35.3964 111.886L36.3384 113.176L35.3145 112.289C34.4954 111.563 34.1678 111.483 33.7992 111.845C33.2667 112.37 33.1439 111.886 33.5534 110.797C33.8811 109.991 34.2497 110.233 35.3964 111.886ZM233.415 114.789C233.538 115.353 233.538 116.24 233.415 116.764C233.169 117.732 221.988 128.296 221.251 128.296C220.268 128.296 220.473 127.005 221.538 126.199C224.528 123.941 227.149 121.119 226.903 120.474C226.453 119.385 225.715 119.748 222.316 122.651C220.514 124.223 218.876 125.393 218.63 125.352C217.401 124.949 218.343 123.699 222.398 120.312C224.814 118.297 227.558 115.998 228.459 115.232C229.688 114.144 230.466 113.821 231.613 113.781C232.924 113.781 233.21 113.942 233.415 114.789ZM41.5807 120.716C41.4578 121.804 41.8673 122.732 43.9151 125.796C45.3076 127.852 46.4134 129.747 46.4134 130.029C46.3724 130.795 41.0892 122.57 41.0892 121.764C41.0892 121.24 40.7616 121.038 40.0653 121.038C38.8776 121.038 38.7547 120.393 39.6967 119.385C40.2701 118.74 40.2701 118.579 39.41 117.45C38.6728 116.442 38.3861 116.321 37.6899 116.643C36.6251 117.208 36.1746 116.643 36.666 115.394C37.0756 114.386 37.0756 114.386 39.41 116.885C41.4578 119.063 41.7445 119.546 41.5807 120.716ZM48.9936 125.191C48.8707 125.393 47.683 124.506 46.3724 123.215C45.0619 121.966 44.1199 120.716 44.2427 120.514C44.3656 120.312 45.5533 121.199 46.8639 122.49C48.1744 123.74 49.1164 124.99 48.9936 125.191ZM203.518 130.755L204.623 132.328L203.108 133.658C201.675 134.868 201.552 135.15 201.224 137.972C200.569 143.496 200.692 145.109 201.879 146.681C202.944 148.052 202.944 148.092 202.207 148.657C201.798 149.02 199.504 150.189 197.129 151.318C194.753 152.447 192.009 153.737 190.985 154.221C188.528 155.39 186.235 157.809 185.907 159.503C185.211 163.131 186.726 165.994 190.002 167.244C192.009 168.01 192.951 167.808 201.798 165.147C206.344 163.736 209.661 163.414 211.627 164.18C212.814 164.623 213.92 166.478 213.92 168.01C213.92 170.792 211.668 172.566 206.671 173.655C197.252 175.751 186.357 179.138 181.852 181.396C181.197 181.719 180.624 181.92 180.583 181.84C180.501 181.759 180.255 180.63 179.968 179.299C178.371 171.719 174.398 163.535 168.829 156.398L167.969 155.269L170.835 152.528C174.03 149.423 177.634 147.165 180.951 146.197C182.671 145.714 183.368 145.31 183.818 144.423C184.146 143.819 184.678 143.214 185.006 143.093C185.334 142.972 185.702 142.125 185.866 141.198C186.03 140.311 186.357 139.343 186.644 139.061C187.668 138.053 188.528 136.561 188.528 135.835C188.528 134.303 193.32 123.941 194.467 122.933L195.613 121.966L199.013 125.594C200.897 127.57 202.903 129.908 203.518 130.755ZM240.705 122.49C242.016 123.74 241.524 125.151 238.821 127.772C235.094 131.36 229.033 136.36 228.377 136.36C227.067 136.36 228.132 134.747 231.121 132.166C234.193 129.546 235.217 127.892 233.784 127.892C233.456 127.892 231.736 129.263 229.934 130.916C228.132 132.57 226.453 133.94 226.207 133.94C225.961 133.94 225.674 133.658 225.511 133.295C225.347 132.892 225.797 132.247 226.862 131.4C227.722 130.675 230.343 128.457 232.678 126.481C238.371 121.603 239.353 121.119 240.705 122.49ZM222.889 132.731L230.302 140.754L228.582 142.327C221.702 148.496 220.268 149.665 219.777 149.665C218.671 149.665 219.326 148.899 223.75 144.988C226.248 142.811 228.214 140.795 228.173 140.512C227.968 139.625 217.565 128.699 216.91 128.699C216.132 128.699 205.811 137.448 205.565 138.335C205.443 138.698 205.156 140.472 204.869 142.246L204.378 145.552L206.753 148.294C208.064 149.826 209.538 151.237 210.07 151.399C210.685 151.64 212.077 151.439 214.125 150.915C217.77 149.907 218.016 149.907 218.016 150.633C218.016 151.399 210.562 153.132 209.579 152.568C209.21 152.366 207.367 150.431 205.484 148.254C202.207 144.464 202.084 144.222 202.248 142.649C202.371 141.722 202.535 139.787 202.699 138.295L202.944 135.593L209.088 130.11C212.487 127.126 215.313 124.667 215.354 124.667C215.436 124.667 218.835 128.296 222.889 132.731ZM56.775 128.699C57.717 129.142 58.1266 129.425 57.6761 129.263C53.2529 128.013 53.7444 127.973 50.1403 130.271C47.683 131.884 46.8229 132.65 46.8229 133.295C46.8639 134.626 48.1744 136.924 48.9936 137.085C49.4031 137.166 51.4918 136.037 53.7034 134.545C59.2324 130.876 59.2324 130.836 58.9866 130.11C58.4542 128.86 59.56 129.586 61.1982 131.602C63.6555 134.666 67.833 140.835 67.5872 141.077C67.4644 141.157 65.8671 139.142 63.9832 136.601C61.4849 133.134 60.3791 131.924 59.7238 131.924C59.2324 131.924 57.2256 133.013 55.1778 134.384C53.171 135.714 50.9184 137.206 50.2222 137.69C49.485 138.174 48.8707 138.738 48.8707 138.94C48.8707 139.101 50.3041 141.278 52.0652 143.778C56.2426 149.584 56.0379 149.141 54.9321 150.028C53.7853 150.955 53.4986 150.753 51.6966 147.931C49.4441 144.383 46.7001 140.795 46.2496 140.795C45.9629 140.795 45.84 139.545 45.9219 137.166C46.0448 133.86 46.0038 133.537 45.3076 133.537C44.898 133.577 44.1199 133.94 43.5875 134.344C42.6864 135.11 42.6455 135.352 42.8093 139.101L42.9731 143.012L46.3315 147.77C48.2154 150.35 49.8536 152.81 49.9765 153.213C50.2632 154.06 48.7888 152.044 44.8571 146.439L41.9083 142.165V139.182C41.9083 137.529 42.0312 135.795 42.154 135.352C42.2769 134.908 44.7342 132.973 47.5601 131.037C53.2529 127.167 53.4577 127.126 56.775 128.699ZM43.5465 131.32C43.5465 131.521 43.096 130.916 42.5226 129.949C41.9493 129.021 41.4987 128.094 41.4987 127.933C41.5397 127.53 43.5465 130.876 43.5465 131.32ZM146.385 130.795C148.76 135.311 149.743 141.924 148.842 147.044C148.556 148.576 147.778 151.278 147.081 153.052C145.771 156.398 132.706 181.678 131.805 182.686C131.355 183.13 131.232 183.089 130.986 182.364C130.781 181.719 132.337 178.574 137.252 169.502C140.856 162.93 144.378 156.398 145.075 154.987C146.672 151.882 147.982 146.641 147.982 143.415C147.982 140.391 147.081 135.271 145.976 132.045C145.484 130.634 145.115 129.425 145.115 129.304C145.115 128.699 145.607 129.263 146.385 130.795ZM219.818 135.956C220.965 136.36 221.538 137.811 221.128 139.343C220.801 140.714 213.797 146.439 212.446 146.439C211.217 146.439 209.415 144.786 209.415 143.617C209.415 142.165 210.111 141.359 213.756 138.416C217.32 135.513 217.975 135.231 219.818 135.956ZM44.5294 148.133L48.543 154.261L47.9287 157.285C47.1915 160.874 46.7001 159.704 52.6795 168.131C54.9321 171.316 57.0208 174.018 57.3484 174.139C57.6761 174.26 59.7648 173.252 61.9764 171.921C64.2289 170.591 66.0719 169.542 66.0719 169.663C66.0719 169.744 64.7204 170.671 63.1231 171.76C59.4371 174.219 58.8638 174.824 58.4952 176.84C58.2085 178.574 58.0037 178.856 51.9833 186.436L47.9287 191.597H37.1165H26.3453V189.016C26.3453 180.428 29.6217 165.309 33.6763 155.108C35.0278 151.681 39.9424 142.004 40.2701 142.045C40.393 142.045 42.2769 144.786 44.5294 148.133ZM72.2152 142.569C72.2152 142.649 71.9285 142.932 71.6008 143.214C71.1094 143.617 70.9865 143.617 70.9865 143.052C70.9865 142.69 71.2732 142.407 71.6008 142.407C71.9285 142.407 72.2152 142.488 72.2152 142.569ZM68.3654 144.625C68.9388 144.786 68.8568 144.988 67.9968 145.633C66.6453 146.681 66.4814 146.641 66.4814 145.23C66.4814 144.383 66.6453 144.101 67.0958 144.222C67.4234 144.343 67.9968 144.504 68.3654 144.625ZM78.3585 150.31C81.1434 154.221 82.413 156.318 82.1673 156.559C81.8806 156.842 80.3653 155.027 77.5803 151.116C75.3278 147.891 73.4438 145.068 73.4438 144.827C73.4438 143.738 74.4677 144.907 78.3585 150.31ZM145.853 146.722C146.508 147.004 146.508 147.044 145.361 150.31C144.378 153.213 143.027 155.995 141.266 158.737L140.242 160.349L140.201 152.407V144.464L142.781 145.472C144.174 146.036 145.566 146.601 145.853 146.722ZM176.856 146.157C169.771 149.826 165.552 154.261 162.194 161.559C160.638 164.906 152.324 184.259 150.112 189.661C149.662 190.831 149.252 191.194 148.515 191.194C148.023 191.194 147.573 191.113 147.573 191.032C147.573 190.911 149.989 185.267 152.938 178.412C155.887 171.598 158.835 164.664 159.532 163.01C162.03 156.842 165.388 152.003 168.951 149.383C172.105 147.125 177.47 144.464 178.904 144.464C179.927 144.464 179.641 144.706 176.856 146.157ZM64.3108 147.084L65.2528 147.326L64.2699 148.092C62.9183 149.141 62.3859 149.06 62.3859 147.85C62.3859 146.802 62.7545 146.681 64.3108 147.084ZM60.6658 149.584C61.0344 149.866 60.9934 150.108 60.3382 150.673C59.5191 151.399 59.5191 151.399 59.5191 150.35C59.5191 149.221 59.7648 149.06 60.6658 149.584ZM207.49 152.769C208.883 154.302 210.398 154.463 214.535 153.495C215.886 153.213 217.115 153.052 217.238 153.213C217.893 153.898 222.152 164.744 223.053 168.01C224.896 174.501 226.575 185.065 226.616 190.065V191.597H203.886H181.156V188.452V185.347L184.965 183.815C189.224 182.041 196.76 179.622 206.344 176.88C215.354 174.3 216.787 173.09 216.787 168.131C216.787 164.946 215.927 163.172 213.634 161.599C211.135 159.866 208.801 159.987 200.159 162.325C196.35 163.333 192.705 164.18 192.05 164.18C190.658 164.18 188.938 162.527 188.938 161.236C188.938 160.712 189.306 159.785 189.757 159.22C190.74 158.011 205.197 150.753 205.852 151.157C206.098 151.278 206.835 152.003 207.49 152.769ZM57.8808 152.124C57.8808 152.286 57.5122 152.648 57.0617 152.89C56.3655 153.253 56.2426 153.213 56.2426 152.326C56.2426 151.56 56.4065 151.399 57.0617 151.56C57.5122 151.681 57.8808 151.923 57.8808 152.124ZM54.7273 154.1C55.2188 154.1 53.7853 155.269 53.2939 155.31C53.0891 155.31 52.9662 154.947 52.9662 154.463C52.9662 153.858 53.13 153.697 53.6215 153.858C53.9901 153.979 54.4816 154.1 54.7273 154.1ZM60.0924 157.245C60.9525 158.495 62.7955 161.115 64.147 163.051C65.4576 165.026 66.4814 166.841 66.3586 167.083C66.2357 167.365 65.6214 167.929 64.9251 168.333L63.6555 169.018L62.6316 167.688C61.6897 166.478 58.1675 161.115 56.1607 157.85L55.3416 156.559L56.7341 155.713C57.4713 155.269 58.1675 154.906 58.2904 154.906C58.4133 154.947 59.2324 155.955 60.0924 157.245ZM93.0614 157.809C93.5938 159.422 94.1262 160.995 94.2491 161.277C94.3719 161.68 93.5528 161.761 90.4402 161.68C88.1468 161.599 86.3447 161.398 86.2628 161.156C86.1399 160.712 91.3003 154.906 91.8327 154.906C91.9965 154.906 92.5699 156.237 93.0614 157.809ZM51.5328 156.116C51.6556 156.318 51.6966 156.519 51.5737 156.519C51.4918 156.519 51.0823 156.64 50.7546 156.761C50.2632 156.963 50.1403 156.842 50.3451 156.358C50.6318 155.632 51.1642 155.511 51.5328 156.116ZM82.3721 158.535C82.2492 158.898 70.1674 167.083 70.1674 166.801C70.1674 166.72 71.7647 165.51 73.7715 164.139C75.7373 162.728 78.3585 160.793 79.5871 159.866C81.7987 158.172 82.6588 157.769 82.3721 158.535ZM53.9491 166.034C56.2836 169.341 58.1266 172.203 58.0037 172.365C57.758 172.768 58.2904 173.453 53.4167 166.639C51.1642 163.454 49.2802 160.551 49.2802 160.228C49.2802 159.382 49.1164 159.22 53.9491 166.034ZM86.5495 163.131C87.1229 163.252 89.0887 163.454 90.9317 163.575C93.2662 163.777 94.4539 164.059 94.9044 164.502C95.232 164.906 99.5733 170.953 104.529 177.969C111.082 187.323 113.334 190.79 112.802 190.79C112.269 190.79 110.344 188.25 106.618 182.606C103.628 178.13 99.6961 172.445 97.8941 169.945C94.331 164.986 94.6996 165.228 89.3754 164.785C86.5085 164.543 86.1399 164.422 84.8703 163.131C84.1331 162.365 83.355 161.761 83.1502 161.761C82.9045 161.761 78.0718 164.986 72.379 168.897C63.0002 175.388 61.9764 176.195 61.9764 177.203C61.9764 178.775 53.171 190.79 52.0242 190.79C51.2461 190.79 51.2461 190.75 51.9833 189.661C52.3519 189.057 54.3587 186.315 56.4065 183.533C59.3143 179.582 60.1743 178.13 60.3382 176.8L60.5429 175.106L71.8056 167.486L83.0683 159.866L84.297 161.398C84.9522 162.244 85.9761 163.01 86.5495 163.131ZM166.248 163.898C169.607 168.897 172.433 175.388 173.62 180.832C173.948 182.364 174.194 183.856 174.194 184.138C174.194 184.501 171.245 186.113 166.945 188.17L159.696 191.637L155.109 191.516L150.563 191.395L156.419 178.291C159.655 171.074 162.644 164.341 163.095 163.252C163.545 162.204 164.078 161.357 164.242 161.357C164.405 161.357 165.347 162.486 166.248 163.898ZM88.802 170.187C88.5563 170.389 81.7577 175.187 73.6896 180.872C62.2631 188.895 58.6999 191.194 57.758 191.194C57.0617 191.194 56.6112 191.113 56.7341 190.992C56.857 190.871 63.6555 186.073 71.8466 180.307C83.0683 172.445 87.041 169.865 87.9829 169.824C88.6792 169.824 89.0068 169.986 88.802 170.187ZM174.603 189.984V191.597H171.245C169.402 191.597 168.009 191.516 168.132 191.395C168.46 191.073 173.948 188.371 174.317 188.371C174.48 188.371 174.603 189.097 174.603 189.984Z" fill="#2E2E2E"/>
<path d="M71.0684 79.55C66.0718 83.219 62.7954 85.8801 62.7954 86.2833C62.7954 86.6865 63.5736 87.8154 64.4746 88.9041C66.0718 90.7184 66.2357 90.7991 67.6691 90.5571C69.1435 90.2749 69.1435 90.2749 68.3653 91.1216C67.6281 91.9683 67.6281 92.0086 69.553 94.831C70.5769 96.3631 71.6417 97.6533 71.8465 97.6533C72.0513 97.6533 74.5086 95.9196 77.2526 93.7827C79.9966 91.6861 83.7645 88.8234 85.6075 87.4526C88.7201 85.1544 89.6211 83.9448 88.6382 83.3803C88.4334 83.2594 86.959 81.3644 85.4027 79.1871C81.8806 74.4295 80.9795 73.4618 80.0376 73.4618C79.669 73.4618 75.6144 76.2035 71.0684 79.55ZM81.9625 77.1712C81.8806 77.4131 81.1024 78.1791 80.2833 78.8646C79.2185 79.7113 78.6451 79.9532 78.3174 79.6306C78.0308 79.3484 78.4403 78.8243 79.628 77.9372C81.471 76.6067 82.2082 76.3648 81.9625 77.1712ZM83.3959 78.9855C83.8874 79.4694 82.372 80.7193 81.2662 80.7193H80.2014L81.43 79.7113C82.7406 78.663 82.9863 78.542 83.3959 78.9855ZM80.6109 82.0901C85.4437 83.6222 85.8532 83.8238 84.9931 84.2673C84.215 84.7109 83.314 84.5496 78.768 83.0981C74.4677 81.7272 73.5257 81.2837 73.8943 80.8402C74.5086 80.1145 74.5496 80.1145 80.6109 82.0901ZM78.5632 84.227C82.6177 85.5172 82.9863 85.6785 82.2491 86.2027C81.2253 86.9687 81.471 87.0091 75.4506 85.1141C70.7407 83.6222 70.2083 83.3803 70.8636 82.8965C71.7646 82.2514 72.5837 82.3723 78.5632 84.227ZM75.0001 86.2027C77.7441 87.0091 79.9966 87.8558 79.9966 88.017C79.9966 88.9847 77.6622 88.7428 73.198 87.3316C70.495 86.4849 68.2425 85.7592 68.1605 85.6785C67.8329 85.4366 69.1025 84.3077 69.553 84.5093C69.7988 84.5899 72.2561 85.356 75.0001 86.2027ZM70.0854 87.6138C77.9488 90.0733 77.2526 89.7508 76.4335 90.4765C75.7373 91.0813 75.2868 91.0007 70.7817 89.5492C68.0786 88.6621 65.6213 87.8558 65.2937 87.7751C64.8432 87.6138 64.8432 87.4526 65.2527 86.9687C65.908 86.2027 65.4575 86.1624 70.0854 87.6138Z" fill="#2E2E2E"/>
<path d="M159.122 96.5255C158.139 97.4932 158.59 98.3399 160.597 99.1866C168.419 102.493 187.873 111.887 187.791 112.29C187.463 113.46 186.685 113.298 181.32 110.839C178.166 109.387 172.883 106.928 169.484 105.396C166.126 103.864 162.071 102.009 160.556 101.283C158.467 100.275 157.648 100.074 157.32 100.396C157.034 100.678 156.952 100.961 157.034 101.082C157.279 101.283 175.832 109.831 185.661 114.266L192.787 117.451L193.525 116.524C194.508 115.234 195.204 113.5 194.958 112.855C194.835 112.492 163.177 97.3722 160.064 96.203C159.818 96.082 159.409 96.2433 159.122 96.5255Z" fill="#2E2E2E"/>
<path d="M156.296 103.503C155.928 104.269 155.682 104.994 155.805 105.075C155.887 105.196 160.392 107.252 165.798 109.671C171.204 112.131 178.494 115.397 181.975 117.01C191.682 121.404 191.272 121.283 192.214 120.437C193.852 118.985 193.32 118.461 186.808 115.397C178.494 111.486 157.689 102.091 157.279 102.091C157.116 102.091 156.665 102.737 156.296 103.503Z" fill="#2E2E2E"/>
<path d="M161.661 115.191C161.047 116.118 161.047 116.28 161.661 117.207C162.112 117.892 162.726 118.215 163.545 118.215C164.364 118.215 164.979 117.892 165.429 117.207C166.043 116.28 166.043 116.118 165.429 115.191C164.979 114.505 164.364 114.183 163.545 114.183C162.726 114.183 162.112 114.505 161.661 115.191Z" fill="#2E2E2E"/>
<path d="M150.808 116.643C150.563 117.127 150.44 117.53 150.522 117.57C151.75 118.417 185.538 133.416 185.907 133.255C186.398 133.093 190.985 123.054 190.985 122.086C190.985 121.522 186.849 119.425 185.743 119.425C185.211 119.425 184.514 120.635 183.04 124.021C181.934 126.562 180.828 128.739 180.501 128.86C180.214 128.981 177.88 128.094 175.34 126.924C168.009 123.497 157.73 118.74 154.33 117.248C151.3 115.877 151.259 115.877 150.808 116.643Z" fill="#2E2E2E"/>
<path d="M149.621 119.224C149.375 119.829 149.252 120.433 149.334 120.514C149.989 121.119 183.081 136.359 183.818 136.359C184.76 136.359 185.579 134.868 184.924 134.303C184.678 134.061 152.119 118.941 150.563 118.337C150.276 118.216 149.866 118.619 149.621 119.224Z" fill="#2E2E2E"/>
<path d="M175.259 120.755C173.784 121.803 174.603 124.666 176.323 124.666C178.535 124.666 179.559 122.328 177.962 120.916C177.061 120.11 176.241 120.07 175.259 120.755Z" fill="#2E2E2E"/>
<path d="M148.638 121.723C148.474 122.086 148.597 122.61 148.884 122.852C149.17 123.134 155.641 126.198 163.259 129.706C170.836 133.214 176.979 136.157 176.897 136.278C176.774 136.359 172.679 134.585 167.764 132.327C150.112 124.182 147.942 123.295 147.532 123.9C147.327 124.222 147.163 124.666 147.163 124.908C147.163 125.15 149.785 126.561 153.02 128.093C176.733 139.302 181.648 141.56 182.139 141.358C182.795 141.116 184.023 138.213 183.655 137.689C183.45 137.367 154.372 123.416 150.153 121.602C149.006 121.118 148.843 121.118 148.638 121.723Z" fill="#2E2E2E"/>
<path d="M228.91 116.241C226.862 117.814 228.337 120.273 230.507 118.862C231.367 118.298 231.572 117.895 231.449 116.887C231.285 115.314 230.425 115.072 228.91 116.241Z" fill="#2E2E2E"/>
<path d="M236.282 124.628C235.258 125.757 235.708 127.49 236.978 127.49C238.493 127.49 239.394 126.603 239.231 125.273C239.067 123.741 237.429 123.378 236.282 124.628Z" fill="#2E2E2E"/>
<path d="M217.606 137.046C216.419 137.489 211.258 142.166 211.258 142.771C211.258 143.981 212.733 143.658 214.699 142.045C216.091 140.876 217.074 140.392 217.975 140.392C218.999 140.392 219.367 140.15 219.654 139.344C220.187 138.054 220.187 138.134 219.408 137.409C218.753 136.723 218.589 136.683 217.606 137.046Z" fill="#2E2E2E"/>
</g>
</svg>
