<svg width="133" height="133" viewBox="0 0 133 133" fill="none" xmlns="http://www.w3.org/2000/svg">
<path d="M110.833 24.9375C113.63 24.9366 116.323 25.9927 118.373 27.894C120.423 29.7953 121.679 32.4013 121.889 35.1896L121.917 36.0208V102.521C121.918 105.317 120.861 108.01 118.96 110.061C117.059 112.111 114.453 113.367 111.665 113.576L110.833 113.604H22.1667C19.3705 113.605 16.6773 112.549 14.627 110.648C12.5766 108.746 11.3208 106.14 11.111 103.352L11.0833 102.521V96.9792H22.1667V102.521H110.833V43.8567L72.3742 82.3159C70.9195 83.7704 68.9772 84.6338 66.9228 84.7392C64.8685 84.8447 62.848 84.1846 61.252 82.8867L60.6203 82.3159L22.1667 43.8567V47.1042H11.0833V36.0208C11.0824 33.2246 12.1385 30.5314 14.0398 28.4811C15.9411 26.4308 18.5471 25.1749 21.3354 24.9652L22.1667 24.9375H110.833ZM33.25 74.8125C34.7197 74.8125 36.1293 75.3964 37.1685 76.4356C38.2078 77.4749 38.7917 78.8844 38.7917 80.3542C38.7917 81.8239 38.2078 83.2334 37.1685 84.2727C36.1293 85.312 34.7197 85.8958 33.25 85.8958H5.54167C4.07192 85.8958 2.66238 85.312 1.62312 84.2727C0.583853 83.2334 0 81.8239 0 80.3542C0 78.8844 0.583853 77.4749 1.62312 76.4356C2.66238 75.3964 4.07192 74.8125 5.54167 74.8125H33.25ZM102.997 36.0208H30.0026L66.5 72.5183L102.997 36.0208ZM27.7083 58.1875C29.1208 58.1891 30.4793 58.7299 31.5064 59.6995C32.5335 60.6692 33.1515 61.9944 33.2343 63.4044C33.3171 64.8144 32.8583 66.2029 31.9518 67.286C31.0452 68.3691 29.7593 69.0652 28.3567 69.232L27.7083 69.2708H11.0833C9.67087 69.2693 8.31232 68.7284 7.28525 67.7588C6.25818 66.7892 5.64011 65.464 5.55734 64.0539C5.47456 62.6439 5.93332 61.2555 6.83988 60.1723C7.74645 59.0892 9.03238 58.3931 10.435 58.2263L11.0833 58.1875H27.7083Z" fill="#2E2E2E"/>
</svg>
