<svg width="60" height="60" viewBox="0 0 60 60" fill="none" xmlns="http://www.w3.org/2000/svg">
<path d="M32.3715 4.80005C35.184 4.80755 36.6115 4.82255 37.844 4.85755L38.329 4.87505C38.889 4.89505 39.4415 4.92005 40.109 4.95005C42.769 5.07505 44.584 5.49505 46.1765 6.11255C47.8265 6.74755 49.2165 7.60755 50.6065 8.99505C51.8782 10.2444 52.8619 11.7562 53.489 13.425C54.1065 15.0175 54.5265 16.8325 54.6515 19.495C54.6815 20.16 54.7065 20.7125 54.7265 21.275L54.7415 21.76C54.779 22.99 54.794 24.4175 54.799 27.23L54.8015 29.095V32.37C54.8076 34.1936 54.7884 36.0171 54.744 37.84L54.729 38.325C54.709 38.8875 54.684 39.44 54.654 40.105C54.529 42.7675 54.104 44.58 53.489 46.175C52.8619 47.8439 51.8782 49.3557 50.6065 50.6051C49.3571 51.8768 47.8453 52.8605 46.1765 53.4875C44.584 54.105 42.769 54.5251 40.109 54.6501L38.329 54.725L37.844 54.74C36.6115 54.775 35.184 54.7926 32.3715 54.7976L30.5065 54.8H27.234C25.4096 54.8065 23.5853 54.7873 21.7615 54.7425L21.2765 54.7276C20.683 54.7051 20.0897 54.6792 19.4965 54.6501C16.8365 54.5251 15.0215 54.105 13.4265 53.4875C11.7585 52.8602 10.2476 51.8765 8.99897 50.6051C7.72633 49.356 6.74174 47.8441 6.11397 46.175C5.49647 44.5825 5.07647 42.7675 4.95147 40.105L4.87647 38.325L4.86397 37.84C4.81789 36.0171 4.79705 34.1936 4.80147 32.37V27.23C4.79455 25.4065 4.81289 23.583 4.85647 21.76L4.87397 21.275C4.89397 20.7125 4.91897 20.16 4.94897 19.495C5.07397 16.8325 5.49397 15.02 6.11147 13.425C6.74071 11.7555 7.72703 10.2436 9.00147 8.99505C10.2494 7.72392 11.7594 6.74023 13.4265 6.11255C15.0215 5.49505 16.834 5.07505 19.4965 4.95005C20.1615 4.92005 20.7165 4.89505 21.2765 4.87505L21.7615 4.86005C23.5845 4.81563 25.408 4.79646 27.2315 4.80255L32.3715 4.80005ZM29.8015 17.3C26.4863 17.3 23.3068 18.617 20.9626 20.9612C18.6184 23.3054 17.3015 26.4848 17.3015 29.8C17.3015 33.1153 18.6184 36.2947 20.9626 38.6389C23.3068 40.9831 26.4863 42.3 29.8015 42.3C33.1167 42.3 36.2961 40.9831 38.6403 38.6389C40.9845 36.2947 42.3015 33.1153 42.3015 29.8C42.3015 26.4848 40.9845 23.3054 38.6403 20.9612C36.2961 18.617 33.1167 17.3 29.8015 17.3ZM29.8015 22.3C30.7864 22.2999 31.7617 22.4937 32.6717 22.8705C33.5817 23.2472 34.4086 23.7995 35.1051 24.4959C35.8017 25.1922 36.3543 26.0189 36.7313 26.9288C37.1084 27.8386 37.3026 28.8139 37.3027 29.7988C37.3029 30.7837 37.1091 31.759 36.7323 32.669C36.3555 33.579 35.8032 34.4059 35.1069 35.1025C34.4106 35.799 33.5839 36.3516 32.674 36.7287C31.7641 37.1057 30.7889 37.2999 29.804 37.3C27.8148 37.3 25.9072 36.5099 24.5007 35.1034C23.0941 33.6968 22.304 31.7892 22.304 29.8C22.304 27.8109 23.0941 25.9033 24.5007 24.4967C25.9072 23.0902 27.8148 22.3 29.804 22.3M42.929 13.55C42.1002 13.55 41.3053 13.8793 40.7193 14.4653C40.1332 15.0514 39.804 15.8462 39.804 16.675C39.804 17.5039 40.1332 18.2987 40.7193 18.8848C41.3053 19.4708 42.1002 19.8 42.929 19.8C43.7578 19.8 44.5526 19.4708 45.1387 18.8848C45.7247 18.2987 46.054 17.5039 46.054 16.675C46.054 15.8462 45.7247 15.0514 45.1387 14.4653C44.5526 13.8793 43.7578 13.55 42.929 13.55Z" fill="#F5F3E7"/>
</svg>
