<svg width="60" height="60" viewBox="0 0 60 60" fill="none" xmlns="http://www.w3.org/2000/svg">
<path opacity="0.7" d="M30.555 14.9425C34.109 14.8824 37.5433 16.2263 40.1125 18.6825L47.2825 11.5125C42.759 7.25972 36.7633 4.92545 30.555 5.00002C25.92 4.99924 21.376 6.28702 17.4306 8.71953C13.4852 11.152 10.2937 14.6335 8.21252 18.775L16.565 25.25C17.5256 22.2844 19.3921 19.6947 21.9018 17.8457C24.4115 15.9966 27.438 14.9812 30.555 14.9425Z" fill="#FFCC00"/>
<path d="M8.21244 18.7749C6.46414 22.2585 5.55371 26.1022 5.55371 29.9999C5.55371 33.8976 6.46414 37.7413 8.21244 41.2249L16.5649 34.7499C15.5173 31.6699 15.5173 28.3299 16.5649 25.2499L8.21244 18.7749Z" fill="#FFCC00"/>
<path opacity="0.5" d="M39.02 42.67C37.0871 43.9107 34.8964 44.6936 32.615 44.959C30.3336 45.2243 28.0217 44.9651 25.8557 44.2012C23.6897 43.4372 21.7267 42.1886 20.1166 40.5507C18.5065 38.9128 17.2917 36.9288 16.565 34.75L8.21497 41.225C10.2957 45.3658 13.4864 48.8467 17.4309 51.2792C21.3754 53.7116 25.9183 54.9999 30.5525 55C36.6381 55.1641 42.5565 52.9972 47.0975 48.9425L39.02 42.67Z" fill="#FFCC00"/>
<path opacity="0.25" d="M54.1001 25.4551H30.5551V35.1251H44.0101C43.7315 36.6547 43.1457 38.112 42.2881 39.4088C41.4304 40.7056 40.3186 41.8151 39.0201 42.6701L47.1001 48.9451C49.5609 46.5757 51.4963 43.7155 52.7806 40.5499C54.0649 37.3844 54.6694 33.9843 54.5551 30.5701C54.5551 28.8501 54.4034 27.1451 54.1001 25.4551Z" fill="#FFCC00"/>
</svg>
