<svg width="205" height="119" viewBox="0 0 205 119" fill="none" xmlns="http://www.w3.org/2000/svg">
<path d="M50.2049 25.4821C49.9127 25.4566 49.6944 25.3505 49.5501 25.1639C49.4179 24.9918 49.3611 24.7994 49.3797 24.5869C49.3959 24.401 49.4907 24.2352 49.664 24.0898C49.8518 23.9322 50.0976 23.7997 50.4014 23.6924C50.9571 23.4599 51.4796 23.2245 51.9688 22.9862C52.4714 22.749 52.8827 22.4838 53.2028 22.1906C53.5228 21.8973 53.6985 21.5714 53.7299 21.2127C53.7566 20.9072 53.6772 20.6661 53.4919 20.4893C53.3078 20.2992 53.043 20.1891 52.6977 20.1589C52.4984 20.1415 52.216 20.157 51.8504 20.2053C51.486 20.2404 51.0872 20.2859 50.654 20.3417C50.2353 20.3854 49.8232 20.4297 49.4177 20.4746C49.0135 20.5062 48.6719 20.5098 48.3929 20.4855C47.8882 20.4414 47.5201 20.2887 47.2886 20.0276C47.0582 19.7532 46.9617 19.4034 46.9988 18.9784C47.0174 18.7659 47.1714 18.4581 47.4609 18.0551C47.7504 17.6521 48.1237 17.2096 48.5807 16.7275C49.0522 16.2334 49.5635 15.7427 50.1146 15.2555C50.6658 14.7683 51.2201 14.3215 51.7776 13.9151C52.3484 13.5099 52.8718 13.1876 53.3477 12.9481C53.837 12.7098 54.2344 12.604 54.5399 12.6307C54.8454 12.6574 55.0691 12.7773 55.2111 12.9904C55.3531 13.2036 55.4108 13.4629 55.3841 13.7685C55.3632 14.0075 55.3053 14.2099 55.2106 14.3757C55.1169 14.5281 54.9399 14.6398 54.6794 14.7107C54.4322 14.7828 54.0556 14.8034 53.5497 14.7726C52.9957 15.1391 52.4033 15.5625 51.7724 16.0427C51.156 16.5109 50.5843 17.003 50.0574 17.5191C49.5449 18.023 49.1604 18.5181 48.9038 19.0043C49.3549 18.8965 49.8972 18.8167 50.5308 18.765C51.1788 18.7012 51.8282 18.6977 52.4791 18.7545C53.5018 18.8439 54.2387 19.1425 54.6895 19.6503C55.1548 20.146 55.3549 20.7658 55.2899 21.5096C55.2482 21.9878 55.0519 22.4726 54.7011 22.9639C54.3648 23.4431 53.9384 23.881 53.4219 24.2776C52.9055 24.6741 52.3633 24.9814 51.7955 25.1995C51.2266 25.4309 50.6964 25.5251 50.2049 25.4821ZM51.8788 12.2978C51.56 12.2699 51.4168 12.07 51.4493 11.6981C51.4644 11.5255 51.5529 11.2789 51.7147 10.9584C51.8766 10.638 52.0823 10.2745 52.332 9.86801C52.5816 9.46153 52.8457 9.04293 53.1243 8.6122C53.4161 8.18264 53.699 7.77906 53.9729 7.40147C54.0653 7.26232 54.1754 7.15148 54.3031 7.06894C54.444 6.98757 54.5942 6.95384 54.7536 6.96777C54.8997 6.98054 55.0576 7.08802 55.2273 7.29023C55.3982 7.47915 55.4691 7.73964 55.4401 8.07171C55.4285 8.20454 55.3224 8.4228 55.1219 8.7265C54.9214 9.0302 54.6703 9.37633 54.3687 9.76488C54.067 10.1534 53.7593 10.5348 53.4456 10.9089C53.1318 11.283 52.8487 11.6129 52.5962 11.8987C52.4772 12.0355 52.3611 12.1392 52.2478 12.2096C52.1479 12.2811 52.0249 12.3105 51.8788 12.2978ZM60.6119 26.7527C59.5892 26.6634 58.8146 26.2611 58.2881 25.5459C57.7762 24.8186 57.573 23.8506 57.6786 22.6418C57.7436 21.898 57.9192 21.0367 58.2055 20.0579C58.5062 19.067 58.8647 18.0276 59.281 16.9397C59.7117 15.8396 60.1678 14.7552 60.6493 13.6864C61.1308 12.6176 61.5921 11.6273 62.0331 10.7156C62.4886 9.79171 62.8837 9.02318 63.2183 8.40998C63.409 8.06527 63.6505 7.90568 63.9427 7.93121C64.3412 7.96603 64.519 8.22917 64.476 8.72063C64.4621 8.88002 64.3606 9.19907 64.1716 9.67776C63.9825 10.1565 63.7365 10.7506 63.4336 11.4603C63.1319 12.1567 62.8032 12.931 62.4477 13.7833C62.0922 14.6356 61.7277 15.5139 61.3542 16.4181C60.9952 17.3103 60.6567 18.1975 60.3387 19.0798C60.0219 19.9489 59.7562 20.7689 59.5416 21.5398C59.327 22.3107 59.1953 22.9751 59.1466 23.533C59.1153 23.8916 59.1833 24.1853 59.3507 24.4141C59.5325 24.6307 59.7895 24.7536 60.1215 24.7826C60.7325 24.836 61.354 24.7698 61.9859 24.5841C62.6322 24.3863 63.2566 24.133 63.8591 23.8243C64.4628 23.5022 65.0127 23.1822 65.509 22.8642C66.0196 22.5341 66.4514 22.264 66.8044 22.0539C67.1585 21.8305 67.402 21.7246 67.5348 21.7362C67.827 21.7618 67.9592 21.9339 67.9314 22.2527C67.9221 22.359 67.7984 22.5489 67.5604 22.8226C67.3235 23.083 67.0089 23.3901 66.6166 23.7439C66.2243 24.0978 65.7711 24.4597 65.2569 24.8297C64.7572 25.1876 64.2327 25.5232 63.6833 25.8366C63.1484 26.1378 62.6126 26.3721 62.0761 26.5394C61.5516 26.7211 61.0635 26.7922 60.6119 26.7527ZM75.339 18.5835C75.3019 19.0086 75.1325 19.4154 74.8308 19.8039C74.5304 20.1792 74.1447 20.5336 73.6739 20.8673C73.2042 21.1876 72.6898 21.484 72.1307 21.7563C71.5715 22.0287 71.0158 22.2612 70.4636 22.4539C69.9114 22.6466 69.4098 22.7968 68.9587 22.9046C68.8072 23.4134 68.714 23.867 68.6792 24.2654C68.6571 24.5178 68.7012 24.7024 68.8115 24.8191C68.9218 24.9358 69.1031 25.0051 69.3554 25.0272C69.9133 25.0759 70.5131 25.028 71.1548 24.8833C71.7965 24.7386 72.4567 24.5352 73.1354 24.2733C73.8141 24.0114 74.468 23.7272 75.0971 23.4208C75.7261 23.1144 76.3003 22.8233 76.8196 22.5474C77.3522 22.2727 77.7932 22.0503 78.1427 21.8801C78.4922 21.7098 78.7201 21.6294 78.8263 21.6386C78.9857 21.6526 79.1006 21.7161 79.171 21.8294C79.2559 21.9305 79.2925 22.0474 79.2809 22.1803C79.2716 22.2865 79.0876 22.4779 78.7288 22.7544C78.3834 23.032 77.9203 23.353 77.3398 23.7171C76.7604 24.0681 76.1134 24.4264 75.3988 24.7923C74.6843 25.1582 73.9455 25.4951 73.1824 25.8032C72.4327 26.1125 71.7092 26.3504 71.0121 26.517C70.3282 26.6848 69.7206 26.7455 69.1893 26.6991C68.4986 26.6387 67.9833 26.3327 67.6433 25.781C67.3034 25.2294 67.181 24.4089 67.2762 23.3197C67.34 22.5892 67.4974 21.8601 67.7483 21.1325C68.0126 20.4061 68.3403 19.7187 68.7315 19.0703C69.1372 18.4098 69.5692 17.8318 70.0274 17.3365C70.5 16.829 70.9821 16.4429 71.4737 16.178C71.9664 15.8998 72.432 15.7799 72.8703 15.8182C73.7071 15.8913 74.3443 16.1812 74.7819 16.6878C75.2194 17.1945 75.4051 17.8264 75.339 18.5835ZM69.5111 21.407C69.9449 21.1906 70.3932 20.9621 70.8559 20.7214C71.3186 20.4808 71.7487 20.2306 72.1461 19.9709C72.5436 19.7112 72.8691 19.4318 73.1228 19.1327C73.3909 18.8215 73.54 18.4933 73.5702 18.1479C73.6131 17.6565 73.3689 17.3875 72.8376 17.3411C72.5056 17.3121 72.135 17.4939 71.726 17.8864C71.3313 18.2668 70.939 18.7746 70.5489 19.4098C70.1588 20.0449 69.8129 20.7106 69.5111 21.407ZM86.4047 18.1048C86.8387 17.2728 87.2552 16.4124 87.6541 15.5238C88.0662 14.6363 88.4469 13.726 88.7961 12.7928C88.899 12.5341 89.0371 12.332 89.2104 12.1866C89.3982 12.029 89.605 11.96 89.8308 11.9798C89.9902 11.9937 90.1178 12.0651 90.2136 12.1939C90.3227 12.3239 90.3685 12.4885 90.3511 12.6878C90.3291 12.9401 90.1912 13.3698 89.9374 13.9766C89.6969 14.5847 89.3887 15.3541 89.013 16.2849C88.6505 17.2169 88.2686 18.2944 87.8673 19.5175C87.4804 20.7284 87.1218 22.0756 86.7914 23.5592C86.4743 25.0439 86.2415 26.6363 86.093 28.3365C86.0605 28.7084 85.9541 29.007 85.7738 29.2321C85.5924 29.4706 85.3887 29.5799 85.1629 29.5602C85.0301 29.5486 84.9068 29.5044 84.7931 29.4275C84.6793 29.3507 84.587 29.182 84.5161 28.9215C84.4573 28.6754 84.4239 28.2911 84.416 27.7684C84.4093 27.2325 84.4454 26.5129 84.5243 25.6096C84.5847 24.9189 84.6901 24.172 84.8406 23.3687C84.1333 24.4178 83.385 25.3227 82.5958 26.0836C81.821 26.8323 81.0824 27.3969 80.38 27.7772C79.6908 28.1586 79.1138 28.3291 78.6489 28.2884C78.0777 28.2385 77.6297 28.0053 77.3047 27.5888C76.9918 27.1867 76.8679 26.6137 76.9329 25.8699C76.9898 25.2191 77.2011 24.5616 77.567 23.8976C77.9328 23.2336 78.3971 22.5916 78.9599 21.9715C79.5238 21.3382 80.1374 20.7494 80.8006 20.205C81.4638 19.6607 82.1207 19.1894 82.7711 18.7912C83.4361 18.3808 84.0452 18.0727 84.5985 17.8667C85.1531 17.6475 85.5964 17.5524 85.9284 17.5814C86.0613 17.593 86.1767 17.6499 86.2749 17.7522C86.373 17.8545 86.4163 17.972 86.4047 18.1048ZM86.0917 18.6998C85.9906 18.7847 85.8696 18.8678 85.7286 18.9492C85.5877 19.0306 85.4329 19.1174 85.2642 19.2098C84.6438 19.5705 83.9578 19.9924 83.2062 20.4754C82.4691 20.9464 81.7539 21.4728 81.0606 22.0547C80.3818 22.6244 79.813 23.2373 79.3541 23.8931C78.8953 24.549 78.634 25.2422 78.5701 25.9728C78.5423 26.2916 78.6878 26.4649 79.0065 26.4928C79.4449 26.531 79.941 26.3669 80.495 26.0004C81.0635 25.6218 81.6591 25.0849 82.282 24.3899C82.906 23.6815 83.5411 22.8469 84.1871 21.8862C84.8344 20.9121 85.4692 19.85 86.0917 18.6998ZM97.3844 29.3833C97.2649 29.3728 97.0263 29.3453 96.6689 29.3007C96.3247 29.2572 95.9147 29.2013 95.4388 29.133C94.9629 29.0646 94.4672 28.9945 93.9515 28.9227C93.449 28.8521 92.9726 28.7904 92.5221 28.7376C92.085 28.686 91.7203 28.6475 91.4281 28.622C91.0694 28.5906 90.781 28.445 90.5628 28.185C90.3579 27.9262 90.274 27.5842 90.3111 27.1592C90.3355 26.8803 90.493 26.5326 90.7837 26.1164C91.0744 25.7001 91.4554 25.2449 91.9269 24.7507C92.3995 24.2432 92.9198 23.7265 93.4877 23.2006C94.0689 22.6759 94.6556 22.165 95.2478 21.668C95.84 21.171 96.4087 20.7121 96.9541 20.2913C97.4995 19.8705 97.9709 19.5302 98.3683 19.2705C97.4824 19.3002 96.6134 19.3648 95.7615 19.4644C94.9108 19.5507 94.1675 19.6329 93.5316 19.7112C92.909 19.7907 92.4914 19.8211 92.2789 19.8025C92.0132 19.7793 91.8071 19.6877 91.6605 19.5277C91.515 19.3544 91.4539 19.1349 91.4771 18.8692C91.4898 18.7231 91.662 18.5909 91.9936 18.4727C92.3384 18.3556 92.7889 18.2544 93.3451 18.1691C93.9013 18.0839 94.5089 18.0232 95.1679 17.9871C95.8413 17.9389 96.519 17.9178 97.2011 17.9238C97.8832 17.9299 98.5164 17.9584 99.1008 18.0095C99.4993 18.0443 99.8077 18.1917 100.026 18.4517C100.257 18.7128 100.361 18.9762 100.338 19.2419C100.329 19.3481 100.155 19.5739 99.8174 19.9191C99.4794 20.2643 99.0414 20.6811 98.5035 21.1695C97.9657 21.6579 97.3778 22.182 96.74 22.742C96.1022 23.3019 95.4776 23.863 94.8664 24.4253C94.2563 24.9743 93.7094 25.4886 93.2258 25.9684C92.7434 26.4348 92.3881 26.8254 92.1598 27.14C92.5196 27.1581 92.9458 27.1819 93.4384 27.2116C93.9311 27.2412 94.4436 27.2726 94.9761 27.3058C95.5097 27.3256 96.0162 27.3498 96.4955 27.3783C96.976 27.3935 97.3829 27.409 97.7161 27.4247C98.0626 27.4416 98.289 27.4547 98.3953 27.464C98.9266 27.5104 99.1731 27.7528 99.1348 28.1911C99.1058 28.5232 98.9263 28.8153 98.5965 29.0676C98.2666 29.3198 97.8626 29.425 97.3844 29.3833ZM95.7012 16.7087C95.3824 16.6808 95.2392 16.4809 95.2717 16.109C95.2868 15.9363 95.3753 15.6898 95.5371 15.3693C95.6989 15.0488 95.9047 14.6854 96.1544 14.2789C96.404 13.8724 96.6681 13.4538 96.9467 13.0231C97.2385 12.5935 97.5214 12.1899 97.7953 11.8123C97.8877 11.6732 97.9978 11.5624 98.1255 11.4798C98.2664 11.3984 98.4166 11.3647 98.576 11.3786C98.7221 11.3914 98.88 11.4989 99.0497 11.7011C99.2206 11.89 99.2915 12.1505 99.2625 12.4826C99.2509 12.6154 99.1448 12.8337 98.9443 13.1374C98.7438 13.4411 98.4927 13.7872 98.1911 14.1758C97.8894 14.5643 97.5817 14.9456 97.268 15.3198C96.9542 15.6939 96.6711 16.0238 96.4186 16.3096C96.2996 16.4464 96.1835 16.55 96.0702 16.6204C95.9703 16.692 95.8473 16.7214 95.7012 16.7087ZM113.653 30.122C113.268 30.0884 112.942 29.839 112.674 29.374C112.407 28.909 112.304 28.3311 112.364 27.6404C112.43 26.8833 112.601 26.0818 112.875 25.2358C113.163 24.391 113.499 23.5369 113.882 22.6737C114.266 21.7972 114.641 20.9533 115.007 20.142C115.088 19.9751 115.192 19.857 115.319 19.7878C115.46 19.7064 115.663 19.6773 115.929 19.7005C116.407 19.7423 116.626 19.9956 116.585 20.4605C116.576 20.5668 116.502 20.8013 116.363 21.1639C116.224 21.5265 116.045 21.9726 115.824 22.5021C115.617 23.0328 115.4 23.6093 115.171 24.2318C114.944 24.841 114.736 25.4586 114.548 26.0846C114.359 26.7105 114.215 27.2935 114.114 27.8334C114.346 27.6262 114.615 27.3017 114.922 26.8601C115.241 26.4195 115.586 25.921 115.956 25.3644C116.327 24.7945 116.711 24.2258 117.109 23.6583C117.507 23.0774 117.901 22.5497 118.291 22.0751C118.695 21.5885 119.076 21.2069 119.435 20.9304C119.808 20.6418 120.141 20.5102 120.433 20.5357C120.858 20.5729 121.205 20.737 121.474 21.0282C121.758 21.3073 121.951 21.7792 122.053 22.444C122.17 23.0967 122.177 24.0074 122.075 25.1763C122.021 25.8006 122.03 26.3903 122.101 26.9453C122.187 27.5015 122.354 27.9578 122.604 28.3142C122.869 28.6586 123.227 28.8504 123.678 28.8899C124.356 28.9491 124.97 28.8823 125.523 28.6897C126.076 28.4837 126.559 28.2448 126.971 27.973C127.397 27.689 127.753 27.4391 128.04 27.2232C128.328 26.994 128.544 26.8858 128.691 26.8986C128.996 26.9253 129.135 27.098 129.107 27.4168C129.095 27.5496 128.977 27.7535 128.752 28.0283C128.542 28.291 128.249 28.5865 127.872 28.915C127.51 29.2313 127.095 29.5364 126.628 29.8302C126.175 30.1118 125.693 30.3374 125.183 30.507C124.686 30.6778 124.192 30.7417 123.701 30.6987C122.784 30.6187 122.05 30.3738 121.496 29.9641C120.957 29.5556 120.583 28.9273 120.376 28.0794C120.183 27.2327 120.146 26.1186 120.267 24.7372C120.333 23.9801 120.335 23.4248 120.272 23.0713C120.223 22.7057 120.091 22.4533 119.876 22.314C119.692 22.579 119.452 22.9595 119.154 23.4555C118.858 23.9382 118.516 24.4772 118.129 25.0725C117.756 25.6689 117.362 26.2702 116.948 26.8765C116.548 27.4706 116.146 28.0176 115.74 28.5176C115.335 29.0176 114.952 29.4191 114.591 29.7222C114.231 30.0119 113.919 30.1452 113.653 30.122ZM128.448 32.3984C127.943 32.3543 127.545 32.0853 127.254 31.5914C126.977 31.0853 126.871 30.4538 126.938 29.6966C126.999 28.9927 127.233 28.3104 127.638 27.6499C128.057 26.9905 128.587 26.3676 129.227 25.7811C129.867 25.1945 130.556 24.6658 131.293 24.1948C132.031 23.7106 132.763 23.2994 133.489 22.9613C134.227 22.6243 134.899 22.3684 135.503 22.1937C136.107 22.0189 136.582 21.9467 136.927 21.9768C137.113 21.9931 137.263 22.0463 137.375 22.1364C137.489 22.2133 137.538 22.3447 137.521 22.5306C137.511 22.6502 137.455 22.759 137.352 22.8572C137.366 22.8583 137.379 22.8595 137.392 22.8606C137.684 22.8862 137.815 23.0716 137.785 23.417C137.775 23.5365 137.707 23.7782 137.581 24.142C137.457 24.4925 137.311 24.9348 137.144 25.469C136.977 26.0031 136.818 26.5982 136.667 27.2542C136.517 27.8969 136.413 28.557 136.354 29.2344C136.304 29.8056 136.498 30.1103 136.936 30.1486C137.428 30.1915 137.936 30.1222 138.46 29.9404C138.985 29.7587 139.5 29.5294 140.006 29.2524C140.513 28.9621 140.98 28.6749 141.406 28.391C141.834 28.0937 142.197 27.8444 142.495 27.6429C142.794 27.4415 143.003 27.346 143.123 27.3565C143.229 27.3657 143.319 27.4071 143.393 27.4804C143.467 27.5538 143.497 27.6636 143.485 27.8097C143.473 27.9425 143.319 28.17 143.023 28.4921C142.728 28.8143 142.341 29.1754 141.865 29.5754C141.388 29.9754 140.86 30.3575 140.279 30.7217C139.698 31.0859 139.111 31.3759 138.517 31.5916C137.922 31.8074 137.366 31.8926 136.848 31.8474C136.449 31.8126 136.095 31.6611 135.783 31.393C135.487 31.1128 135.265 30.6651 135.118 30.05C134.984 29.436 134.963 28.6043 135.055 27.555L135.098 27.0569C134.353 28.0759 133.583 28.9991 132.788 29.8264C132.007 30.6548 131.241 31.3039 130.49 31.7737C129.753 32.2447 129.072 32.4529 128.448 32.3984ZM136.423 23.3783C136.355 23.399 136.258 23.4308 136.134 23.4735C135.499 23.699 134.831 23.9887 134.131 24.3424C133.444 24.6973 132.766 25.0999 132.098 25.5501C131.443 26.0014 130.846 26.4779 130.307 26.9796C129.768 27.4812 129.328 27.9982 128.987 28.5306C128.646 29.0629 128.452 29.5948 128.406 30.1261C128.391 30.2987 128.412 30.4345 128.471 30.5332C128.542 30.6332 128.671 30.6913 128.857 30.7075C129.123 30.7307 129.482 30.5949 129.936 30.2999C130.392 29.9917 130.896 29.5807 131.449 29.067C132.016 28.5543 132.588 27.982 133.165 27.3498C133.743 26.7176 134.294 26.0765 134.819 25.4264C135.358 24.7775 135.825 24.1759 136.222 23.6216C136.283 23.5333 136.35 23.4522 136.423 23.3783ZM144.377 33.7098C144.085 33.6842 143.867 33.5782 143.723 33.3916C143.59 33.2194 143.534 33.0271 143.552 32.8146C143.568 32.6286 143.663 32.4629 143.837 32.3174C144.024 32.1598 144.27 32.0274 144.574 31.9201C145.13 31.6876 145.652 31.4521 146.141 31.2138C146.644 30.9767 147.055 30.7115 147.375 30.4182C147.695 30.125 147.871 29.799 147.902 29.4404C147.929 29.1349 147.85 28.8937 147.664 28.7169C147.48 28.5268 147.216 28.4167 146.87 28.3865C146.671 28.3691 146.389 28.3846 146.023 28.433C145.658 28.468 145.26 28.5135 144.827 28.5694C144.408 28.6131 143.996 28.6574 143.59 28.7023C143.186 28.7339 142.844 28.7375 142.565 28.7131C142.061 28.669 141.693 28.5164 141.461 28.2552C141.231 27.9808 141.134 27.6311 141.171 27.206C141.19 26.9935 141.344 26.6858 141.633 26.2828C141.923 25.8798 142.296 25.4372 142.753 24.9552C143.225 24.461 143.736 23.9703 144.287 23.4831C144.838 22.9959 145.393 22.5491 145.95 22.1428C146.521 21.7376 147.044 21.4152 147.52 21.1757C148.01 20.9374 148.407 20.8316 148.712 20.8583C149.018 20.885 149.242 21.0049 149.384 21.2181C149.526 21.4313 149.583 21.6906 149.557 21.9961C149.536 22.2352 149.478 22.4376 149.383 22.6033C149.289 22.7557 149.112 22.8674 148.852 22.9383C148.605 23.0104 148.228 23.0311 147.722 23.0003C147.168 23.3668 146.576 23.7901 145.945 24.2704C145.329 24.7385 144.757 25.2306 144.23 25.7467C143.717 26.2507 143.333 26.7458 143.076 27.2319C143.527 27.1241 144.07 27.0444 144.703 26.9926C145.351 26.9288 146.001 26.9253 146.652 26.9822C147.674 27.0715 148.411 27.3701 148.862 27.878C149.327 28.3737 149.527 28.9934 149.462 29.7373C149.421 30.2155 149.224 30.7002 148.874 31.1916C148.537 31.6708 148.111 32.1086 147.594 32.5052C147.078 32.9018 146.536 33.2091 145.968 33.4271C145.399 33.6585 144.869 33.7527 144.377 33.7098ZM4.40824 49.7282C3.94335 49.6876 3.57614 49.448 3.30661 49.0096C3.05152 48.559 2.97098 47.7957 3.06498 46.7198C3.16362 45.5908 3.27928 44.4967 3.41197 43.4376C3.54582 42.3652 3.70301 41.4086 3.88354 40.5677C4.07736 39.7281 4.29594 39.0646 4.53927 38.5773C4.78261 38.0899 5.06368 37.8602 5.38246 37.888C5.60827 37.9078 5.79648 38.0514 5.94711 38.3188C6.0989 38.573 6.15738 38.8993 6.12257 39.2978C6.0866 39.7096 5.99859 40.2573 5.85854 40.9411C5.7185 41.6248 5.5539 42.3599 5.36472 43.1464C5.18999 43.9208 5.03028 44.6765 4.8856 45.4133C4.74208 46.1369 4.64827 46.7511 4.60417 47.2558C4.5856 47.4684 4.57716 47.6416 4.57883 47.7756C4.59496 47.8975 4.62958 47.9607 4.68271 47.9654C4.88195 47.9828 5.10956 47.8287 5.36554 47.503C5.63597 47.1653 5.92895 46.7225 6.24451 46.1745C6.56123 45.6133 6.89587 45.0001 7.24843 44.3349C7.60216 43.6564 7.96194 42.9852 8.32779 42.3212C8.69364 41.6572 9.06091 41.0535 9.42959 40.5102C9.79944 39.9536 10.1588 39.5166 10.5078 39.1991C10.8579 38.8683 11.1857 38.7163 11.4912 38.743C11.8499 38.7743 12.1669 38.976 12.4422 39.348C12.732 39.7079 12.8496 40.2 12.795 40.8243C12.7788 41.0103 12.7238 41.3334 12.63 41.7937C12.5374 42.2406 12.4258 42.7529 12.295 43.3303C12.1643 43.9078 12.0335 44.4853 11.9027 45.0628C11.7731 45.627 11.6621 46.1325 11.5695 46.5795C11.478 47.0132 11.4242 47.323 11.408 47.509C11.3476 48.1997 11.3839 48.5508 11.5167 48.5624C11.8886 48.5949 12.3007 48.3967 12.7531 47.9678C13.22 47.5268 13.6984 46.9529 14.1884 46.2462C14.6929 45.5274 15.196 44.7482 15.6976 43.9087C16.2137 43.057 16.7064 42.2435 17.1756 41.468C17.3987 41.0592 17.5764 40.787 17.7087 40.6513C17.8555 40.5036 17.9953 40.4355 18.1281 40.4471C18.3141 40.4633 18.478 40.578 18.62 40.7912C18.7753 41.0055 18.8378 41.2854 18.8077 41.6307C18.7972 41.7503 18.7801 41.8692 18.7564 41.9876C18.7338 42.0927 18.6902 42.2094 18.6254 42.3375C18.0694 43.4935 17.4877 44.5603 16.8803 45.5378C16.2741 46.502 15.6656 47.3389 15.0548 48.0484C14.4585 48.7459 13.8828 49.2845 13.3277 49.6642C12.7737 50.0307 12.2775 50.1949 11.8392 50.1566C11.082 50.0904 10.5095 49.8262 10.1216 49.3641C9.74815 48.8898 9.59333 48.2873 9.65715 47.5568C9.68384 47.2513 9.73858 46.8545 9.82137 46.3666C9.91744 45.8797 10.0236 45.3536 10.1399 44.7883C10.2695 44.2241 10.3974 43.6798 10.5235 43.1555C10.6496 42.6311 10.7567 42.172 10.8446 41.7782C10.9458 41.3855 11.0095 41.1167 11.0355 40.9718C11.065 40.787 11.0532 40.6922 11.0001 40.6876C10.947 40.683 10.8256 40.8463 10.6361 41.1778C10.461 41.4971 10.2445 41.9065 9.98672 42.4059C9.74338 42.8933 9.48501 43.3994 9.21163 43.9242C8.90703 44.4999 8.55737 45.1319 8.16263 45.8201C7.78234 46.4962 7.37839 47.1368 6.95077 47.7419C6.53643 48.3482 6.11203 48.8398 5.67758 49.2167C5.24312 49.5937 4.82001 49.7641 4.40824 49.7282ZM33.2237 52.1052C32.9315 52.0796 32.7132 51.9736 32.5689 51.787C32.4367 51.6148 32.3799 51.4225 32.3985 51.21C32.4147 51.024 32.5095 50.8583 32.6828 50.7128C32.8706 50.5552 33.1164 50.4228 33.4202 50.3155C33.9759 50.083 34.4983 49.8476 34.9876 49.6092C35.4902 49.3721 35.9015 49.1069 36.2215 48.8136C36.5416 48.5204 36.7173 48.1944 36.7486 47.8358C36.7753 47.5303 36.696 47.2891 36.5107 47.1123C36.3266 46.9222 36.0618 46.8121 35.7165 46.7819C35.5172 46.7645 35.2348 46.78 34.8692 46.8284C34.5048 46.8635 34.106 46.9089 33.6728 46.9648C33.2541 47.0085 32.842 47.0528 32.4365 47.0977C32.0322 47.1293 31.6906 47.1329 31.4117 47.1085C30.9069 47.0644 30.5388 46.9118 30.3074 46.6507C30.077 46.3762 29.9804 46.0265 30.0176 45.6015C30.0361 45.3889 30.1902 45.0812 30.4797 44.6782C30.7692 44.2752 31.1425 43.8326 31.5995 43.3506C32.0709 42.8564 32.5823 42.3657 33.1334 41.8785C33.6846 41.3913 34.2389 40.9445 34.7964 40.5382C35.3672 40.133 35.8905 39.8106 36.3665 39.5712C36.8558 39.3328 37.2532 39.227 37.5587 39.2537C37.8642 39.2804 38.0879 39.4003 38.2299 39.6135C38.3719 39.8267 38.4295 40.086 38.4028 40.3915C38.382 40.6306 38.3241 40.833 38.2293 40.9987C38.1357 41.1511 37.9587 41.2628 37.6982 41.3337C37.4509 41.4058 37.0744 41.4265 36.5685 41.3957C36.0145 41.7622 35.4221 42.1855 34.7912 42.6658C34.1748 43.1339 33.6031 43.626 33.0762 44.1421C32.5637 44.6461 32.1792 45.1412 31.9225 45.6274C32.3736 45.5195 32.916 45.4398 33.5495 45.3881C34.1976 45.3242 34.847 45.3207 35.4979 45.3776C36.5206 45.4669 37.2574 45.7655 37.7083 46.2734C38.1736 46.7691 38.3737 47.3889 38.3087 48.1327C38.2669 48.6109 38.0707 49.0956 37.7199 49.587C37.3836 50.0662 36.9572 50.5041 36.4407 50.9006C35.9243 51.2972 35.3821 51.6045 34.8143 51.8225C34.2454 52.0539 33.7151 52.1481 33.2237 52.1052ZM42.8785 52.7078C42.0948 52.6393 41.5033 52.2865 41.1039 51.6493C40.7045 51.0121 40.5466 50.2154 40.6301 49.259C40.6603 48.9137 40.7387 48.5524 40.8653 48.1754C41.0064 47.7862 41.1706 47.4391 41.3578 47.1343C41.273 47.0332 41.2109 46.9006 41.1717 46.7366C41.1337 46.5593 41.1257 46.3444 41.1477 46.092C41.2162 45.3084 41.4117 44.6027 41.7342 43.9751C42.0567 43.3474 42.458 42.8136 42.9382 42.3738C43.4194 41.9206 43.9373 41.5844 44.4918 41.3652C45.0596 41.1471 45.6225 41.0624 46.1803 41.1112C47.0969 41.1912 47.8117 41.5883 48.3248 42.3023C48.8391 43.0031 49.0376 44.0242 48.9204 45.3658C48.8589 46.0698 48.69 46.7778 48.4137 47.4897C48.1506 48.2029 47.8101 48.8825 47.3923 49.5286C46.9878 50.1758 46.5299 50.7448 46.0186 51.2355C45.5205 51.7273 44.9986 52.11 44.4527 52.3836C43.9213 52.645 43.3965 52.753 42.8785 52.7078ZM42.732 46.5717C42.8024 46.685 42.8301 46.8279 42.815 47.0006C42.7976 47.1998 42.7403 47.3956 42.6432 47.5879C42.5594 47.7813 42.4626 48.0472 42.3527 48.3856C42.2428 48.724 42.16 49.212 42.1043 49.8496C42.0486 50.4871 42.2731 50.828 42.7779 50.8721C43.3358 50.9208 43.8729 50.7469 44.3894 50.3503C44.907 49.9405 45.3826 49.3998 45.816 48.7284C46.2494 48.0569 46.6006 47.3313 46.8694 46.5518C47.1527 45.7601 47.3257 45.0056 47.3884 44.2884C47.429 43.8235 47.3711 43.4905 47.2147 43.2894C47.0594 43.0751 46.756 42.9482 46.3044 42.9088C45.8395 42.8682 45.3407 42.9852 44.8081 43.2599C44.29 43.5224 43.8417 43.9049 43.4632 44.4072C43.0847 44.9095 42.8664 45.4927 42.8084 46.1568C42.7956 46.3029 42.7702 46.4412 42.732 46.5717ZM53.7979 53.7421C53.147 53.6852 52.5953 53.4898 52.1426 53.1558C51.7044 52.8097 51.38 52.3865 51.1694 51.8863C50.9588 51.3861 50.8756 50.8836 50.9197 50.3788C51.0125 49.3162 51.2832 48.3628 51.7317 47.5186C52.1814 46.6612 52.7147 45.9181 53.3318 45.2894C53.9633 44.6486 54.5988 44.1153 55.2383 43.6893C55.8911 43.2645 56.4736 42.954 56.986 42.7579C57.5128 42.5496 57.8825 42.4548 58.095 42.4733C58.52 42.5105 58.714 42.7416 58.6768 43.1666C58.6594 43.3658 58.5063 43.5867 58.2174 43.8291C57.9297 44.0583 57.5649 44.3276 57.123 44.6369C56.681 44.9463 56.2085 45.2999 55.7053 45.6976C55.2032 46.082 54.7226 46.5285 54.2632 47.0371C53.805 47.5325 53.4141 48.1006 53.0904 48.7415C52.7679 49.3692 52.5724 50.0748 52.5039 50.8585C52.4343 51.6555 52.7249 52.0824 53.3758 52.1393C53.9735 52.1915 54.5944 52.132 55.2384 51.9607C55.8957 51.7906 56.5455 51.5529 57.1878 51.2477C57.8446 50.9303 58.476 50.5973 59.082 50.2487C59.6879 49.9002 60.239 49.5669 60.7353 49.2488C61.2327 48.9175 61.6506 48.6529 61.9891 48.455C62.3276 48.257 62.5633 48.1638 62.6961 48.1754C62.9618 48.1986 63.0819 48.3564 63.0563 48.6486C63.0366 48.8744 62.8577 49.1599 62.5197 49.5051C62.1817 49.8504 61.7346 50.2195 61.1783 50.6126C60.6219 51.0056 60.0053 51.4001 59.3282 51.796C58.6524 52.1787 57.9728 52.5275 57.2894 52.8426C56.6072 53.1443 55.9574 53.382 55.34 53.5556C54.737 53.7171 54.2229 53.7792 53.7979 53.7421ZM62.4329 54.3158C62.1805 54.2938 61.9628 54.1811 61.7798 53.9777C61.598 53.7611 61.5251 53.4469 61.5611 53.0351C61.5866 52.7429 61.6618 52.3412 61.7868 51.8302C61.9129 51.3058 62.0696 50.7373 62.257 50.1246C62.4444 49.5119 62.6378 48.9065 62.8373 48.3082C63.0512 47.6979 63.2594 47.1539 63.4617 46.6764C63.664 46.1988 63.8354 45.8458 63.9759 45.6171C64.0984 45.4404 64.2084 45.3296 64.3061 45.2846C64.417 45.2407 64.5189 45.2229 64.6119 45.231C64.7978 45.2472 64.952 45.3209 65.0744 45.4521C65.2101 45.5844 65.2628 45.8232 65.2326 46.1686C65.2152 46.3678 65.1464 46.6964 65.026 47.1543C64.9202 47.6002 64.7808 48.1233 64.6079 48.7239C64.4494 49.3123 64.2759 49.9195 64.0873 50.5455C63.9132 51.1594 63.7415 51.7466 63.572 52.3074C63.4026 52.8681 63.2678 53.3381 63.1678 53.7175C63.0961 53.9254 62.9886 54.0833 62.8453 54.1913C62.7165 54.2871 62.579 54.3286 62.4329 54.3158ZM65.3481 43.4684C65.0426 43.4417 64.7585 43.3232 64.4958 43.1129C64.2464 42.9037 64.1397 42.5932 64.1756 42.1815C64.2058 41.8361 64.3099 41.5641 64.4878 41.3655C64.6791 41.1681 64.8917 41.0328 65.1256 40.9595C65.374 40.8741 65.5845 40.839 65.7572 40.8541C65.9298 40.8692 66.119 40.9258 66.3245 41.0241C66.5445 41.1102 66.7255 41.2599 66.8675 41.4731C67.0107 41.6729 67.066 41.9588 67.0335 42.3308C67.0114 42.5831 66.9054 42.8014 66.7153 42.9856C66.5264 43.1564 66.3011 43.284 66.0394 43.3682C65.7911 43.4536 65.5606 43.487 65.3481 43.4684ZM68.1553 55.2374C67.6506 55.1933 67.2525 54.9243 66.961 54.4304C66.684 53.9243 66.5786 53.2928 66.6448 52.5357C66.7063 51.8317 66.9399 51.1494 67.3456 50.4889C67.7645 49.8295 68.2941 49.2066 68.9342 48.6201C69.5744 48.0336 70.263 47.5048 71.0001 47.0339C71.7384 46.5496 72.4703 46.1384 73.1958 45.8003C73.9346 45.4633 74.6061 45.2074 75.2103 45.0327C75.8145 44.858 76.2892 44.7857 76.6346 44.8158C76.8205 44.8321 76.9698 44.8853 77.0824 44.9754C77.1961 45.0523 77.2449 45.1837 77.2286 45.3696C77.2182 45.4892 77.1618 45.598 77.0596 45.6962C77.0728 45.6973 77.0861 45.6985 77.0994 45.6996C77.3916 45.7252 77.5227 45.9106 77.4925 46.256C77.482 46.3755 77.4141 46.6172 77.2886 46.981C77.1643 47.3315 77.0186 47.7738 76.8515 48.308C76.6843 48.8421 76.5253 49.4372 76.3743 50.0932C76.2244 50.7359 76.1199 51.396 76.0607 52.0734C76.0108 52.6446 76.205 52.9493 76.6434 52.9876C77.1348 53.0306 77.6428 52.9612 78.1673 52.7795C78.6917 52.5978 79.207 52.3684 79.713 52.0914C80.2202 51.8011 80.687 51.514 81.1133 51.23C81.5408 50.9327 81.9039 50.6834 82.2025 50.482C82.5012 50.2805 82.7103 50.185 82.8299 50.1955C82.9361 50.2048 83.0262 50.2461 83.1001 50.3195C83.174 50.3928 83.2046 50.5026 83.1918 50.6487C83.1802 50.7815 83.0265 51.009 82.7306 51.3311C82.4348 51.6533 82.0486 52.0144 81.572 52.4144C81.0953 52.8144 80.5667 53.1965 79.9862 53.5607C79.4056 53.9249 78.8181 54.2149 78.2238 54.4306C77.6294 54.6464 77.0732 54.7316 76.5552 54.6864C76.1567 54.6516 75.8019 54.5001 75.4907 54.232C75.1939 53.9518 74.9721 53.5041 74.825 52.889C74.6913 52.275 74.6703 51.4434 74.762 50.394L74.8055 49.8959C74.0606 50.915 73.2907 51.8381 72.4957 52.6654C71.7139 53.4938 70.9479 54.1429 70.1975 54.6128C69.4603 55.0837 68.7796 55.2919 68.1553 55.2374ZM76.1307 46.2173C76.0619 46.2381 75.9655 46.2698 75.8413 46.3125C75.2059 46.538 74.5382 46.8277 73.8381 47.1814C73.1512 47.5363 72.4736 47.9389 71.8052 48.3891C71.1501 48.8404 70.5531 49.3169 70.014 49.8186C69.475 50.3202 69.035 50.8372 68.694 51.3696C68.3531 51.9019 68.1594 52.4338 68.113 52.9651C68.0979 53.1377 68.1195 53.2735 68.1778 53.3723C68.2493 53.4722 68.3781 53.5303 68.5641 53.5465C68.8297 53.5698 69.1896 53.4339 69.6436 53.139C70.0988 52.8307 70.6032 52.4197 71.1567 51.906C71.7235 51.3934 72.2954 50.821 72.8727 50.1888C73.4499 49.5566 74.0011 48.9155 74.5263 48.2654C75.0649 47.6165 75.5323 47.0149 75.9287 46.4606C75.99 46.3723 76.0573 46.2912 76.1307 46.2173ZM85.0549 56.9949C84.0322 56.9056 83.2576 56.5033 82.7312 55.7881C82.2192 55.0608 82.016 54.0928 82.1216 52.884C82.1866 52.1402 82.3622 51.2789 82.6485 50.3001C82.9492 49.3092 83.3077 48.2697 83.724 47.1819C84.1547 46.0818 84.6108 44.9974 85.0923 43.9286C85.5738 42.8598 86.0351 41.8695 86.4761 40.9578C86.9316 40.0339 87.3267 39.2654 87.6613 38.6522C87.852 38.3075 88.0935 38.1479 88.3857 38.1734C88.7842 38.2082 88.962 38.4714 88.9191 38.9628C88.9051 39.1222 88.8036 39.4413 88.6146 39.92C88.4255 40.3986 88.1796 40.9928 87.8766 41.7025C87.5749 42.3989 87.2462 43.1732 86.8907 44.0255C86.5352 44.8778 86.1707 45.7561 85.7972 46.6603C85.4382 47.5525 85.0997 48.4397 84.7817 49.322C84.4649 50.1911 84.1992 51.0111 83.9846 51.782C83.77 52.5529 83.6384 53.2173 83.5896 53.7752C83.5583 54.1338 83.6263 54.4275 83.7937 54.6563C83.9755 54.8729 84.2325 54.9958 84.5646 55.0248C85.1756 55.0782 85.797 55.012 86.4289 54.8263C87.0752 54.6285 87.6997 54.3752 88.3021 54.0664C88.9058 53.7444 89.4557 53.4244 89.952 53.1064C90.4626 52.7763 90.8945 52.5061 91.2474 52.2961C91.6015 52.0727 91.845 51.9668 91.9778 51.9784C92.27 52.004 92.4022 52.1761 92.3744 52.4949C92.3651 52.6012 92.2414 52.7911 92.0034 53.0648C91.7665 53.3252 91.4519 53.6323 91.0596 53.9861C90.6673 54.34 90.2141 54.7019 89.6999 55.0719C89.2002 55.4298 88.6757 55.7654 88.1263 56.0788C87.5914 56.38 87.0557 56.6143 86.5191 56.7816C85.9946 56.9633 85.5066 57.0344 85.0549 56.9949ZM116.049 58.2975C116.017 58.5088 115.915 58.674 115.744 58.7929C115.573 58.9118 115.382 58.9619 115.169 58.9434C114.93 58.9225 114.738 58.8254 114.592 58.652C114.447 58.4787 114.389 58.226 114.418 57.894C114.493 57.0306 114.615 56.0976 114.783 55.0951C114.952 54.0793 115.14 53.0785 115.346 52.0928C115.554 51.0937 115.755 50.1744 115.948 49.3347C115.456 49.9207 114.917 50.5696 114.333 51.2815C113.762 51.9945 113.178 52.6997 112.582 53.3971C111.986 54.0946 111.408 54.7334 110.849 55.3135C110.291 55.8805 109.789 56.3385 109.343 56.6877C108.899 57.0237 108.544 57.18 108.279 57.1568C107.787 57.1139 107.379 56.8842 107.054 56.4676C106.73 56.0378 106.594 55.524 106.646 54.9263C106.667 54.6872 106.722 54.3641 106.811 53.957C106.902 53.5366 107 53.0969 107.107 52.6378C107.214 52.1787 107.312 51.7522 107.4 51.3584C107.489 50.9512 107.542 50.6481 107.56 50.4488C107.576 50.2629 107.57 50.1017 107.542 49.9654C107.528 49.817 107.468 49.7381 107.362 49.7288C107.202 49.7149 106.967 49.8751 106.657 50.2093C106.348 50.5303 105.997 50.948 105.604 51.4624C105.224 51.978 104.828 52.5257 104.416 53.1053C104.018 53.6862 103.642 54.2355 103.289 54.7534C102.937 55.258 102.641 55.6538 102.402 55.9408C102.204 56.2179 102.026 56.4165 101.868 56.5366C101.71 56.6566 101.525 56.7074 101.313 56.6888C101.06 56.6667 100.84 56.5136 100.65 56.2294C100.474 55.9463 100.403 55.6122 100.437 55.227C100.456 55.0012 100.527 54.6527 100.649 54.1815C100.771 53.697 100.918 53.1677 101.088 52.5937C101.272 52.0209 101.448 51.4608 101.617 50.9133C101.799 50.3538 101.955 49.8788 102.082 49.4885C102.228 49.0461 102.388 48.7522 102.561 48.6068C102.734 48.4613 102.914 48.3967 103.1 48.4129C103.352 48.435 103.543 48.5454 103.673 48.7441C103.818 48.9307 103.873 49.2099 103.841 49.5819C103.835 49.6483 103.78 49.8241 103.674 50.1094C103.57 50.3813 103.441 50.718 103.285 51.1193C103.144 51.5085 102.988 51.9165 102.817 52.3432C102.659 52.7711 102.524 53.1675 102.412 53.5325C102.747 53.0665 103.099 52.5619 103.467 52.0186C103.849 51.4765 104.231 50.941 104.612 50.4121C104.994 49.8699 105.371 49.3809 105.744 48.945C106.117 48.4959 106.476 48.1458 106.819 47.8947C107.162 47.6436 107.48 47.5308 107.772 47.5563C108.118 47.5865 108.427 47.7206 108.701 47.9587C108.988 48.1979 109.208 48.5049 109.363 48.8798C109.518 49.2547 109.576 49.6613 109.538 50.0996C109.511 50.4051 109.42 50.8322 109.265 51.3808C109.111 51.9161 108.947 52.4973 108.771 53.1244C108.609 53.7527 108.49 54.3513 108.414 54.9201C108.402 55.0529 108.436 55.1228 108.516 55.1298C108.582 55.1356 108.666 55.0961 108.767 55.0112C109.189 54.6198 109.659 54.1456 110.176 53.5885C110.695 53.0181 111.222 52.4151 111.76 51.7794C112.31 51.1449 112.853 50.5232 113.388 49.9141C113.924 49.2917 114.422 48.7329 114.88 48.2375C115.352 47.7301 115.762 47.3309 116.109 47.04C116.469 46.7502 116.742 46.6134 116.928 46.6297C117.326 46.6645 117.622 46.8041 117.814 47.0485C118.007 47.2928 118.08 47.6807 118.034 48.212C117.997 48.637 117.916 49.1854 117.79 49.857C117.678 50.5298 117.54 51.2606 117.378 52.0494C117.228 52.8394 117.065 53.6349 116.888 54.4359C116.725 55.2247 116.567 55.9604 116.414 56.643C116.262 57.3123 116.14 57.8638 116.049 58.2975ZM128.715 51.3535C128.678 51.7786 128.508 52.1854 128.207 52.5739C127.906 52.9492 127.52 53.3036 127.05 53.6373C126.58 53.9576 126.066 54.2539 125.506 54.5263C124.947 54.7987 124.392 55.0312 123.839 55.2239C123.287 55.4165 122.786 55.5668 122.334 55.6746C122.183 56.1833 122.09 56.6369 122.055 57.0354C122.033 57.2878 122.077 57.4723 122.187 57.589C122.298 57.7058 122.479 57.7751 122.731 57.7972C123.289 57.8459 123.889 57.7979 124.531 57.6532C125.172 57.5085 125.832 57.3052 126.511 57.0433C127.19 56.7814 127.844 56.4972 128.473 56.1908C129.102 55.8844 129.676 55.5933 130.195 55.3174C130.728 55.0427 131.169 54.8203 131.518 54.65C131.868 54.4798 132.096 54.3993 132.202 54.4086C132.361 54.4226 132.476 54.4861 132.547 54.5994C132.632 54.7005 132.668 54.8174 132.657 54.9502C132.647 55.0565 132.463 55.2479 132.105 55.5244C131.759 55.802 131.296 56.1229 130.716 56.4871C130.136 56.838 129.489 57.1964 128.775 57.5623C128.06 57.9281 127.321 58.2651 126.558 58.5732C125.808 58.8825 125.085 59.1204 124.388 59.287C123.704 59.4548 123.096 59.5155 122.565 59.4691C121.874 59.4087 121.359 59.1027 121.019 58.551C120.679 57.9993 120.557 57.1789 120.652 56.0897C120.716 55.3592 120.873 54.6301 121.124 53.9025C121.388 53.1761 121.716 52.4887 122.107 51.8403C122.513 51.1797 122.945 50.6018 123.403 50.1065C123.876 49.599 124.358 49.2128 124.849 48.948C125.342 48.6698 125.808 48.5499 126.246 48.5882C127.083 48.6613 127.72 48.9512 128.158 49.4578C128.595 49.9645 128.781 50.5964 128.715 51.3535ZM122.887 54.177C123.321 53.9606 123.769 53.7321 124.232 53.4914C124.694 53.2508 125.124 53.0006 125.522 52.7409C125.919 52.4812 126.245 52.2018 126.499 51.9027C126.767 51.5915 126.916 51.2633 126.946 50.9179C126.989 50.4264 126.745 50.1575 126.213 50.1111C125.881 50.0821 125.511 50.2638 125.102 50.6564C124.707 51.0368 124.315 51.5446 123.925 52.1797C123.535 52.8149 123.189 53.4806 122.887 54.177ZM139.78 50.8748C140.215 50.0428 140.631 49.1824 141.03 48.2938C141.442 47.4063 141.823 46.4959 142.172 45.5628C142.275 45.3041 142.413 45.102 142.586 44.9566C142.774 44.799 142.981 44.73 143.207 44.7498C143.366 44.7637 143.494 44.8351 143.589 44.9639C143.698 45.0939 143.744 45.2585 143.727 45.4577C143.705 45.7101 143.567 46.1397 143.313 46.7466C143.073 47.3547 142.765 48.1241 142.389 49.0549C142.026 49.9869 141.644 51.0644 141.243 52.2875C140.856 53.4984 140.498 54.8456 140.167 56.3292C139.85 57.8139 139.617 59.4063 139.469 61.1065C139.436 61.4784 139.33 61.777 139.15 62.0021C138.968 62.2406 138.765 62.3499 138.539 62.3302C138.406 62.3186 138.283 62.2744 138.169 62.1975C138.055 62.1207 137.963 61.952 137.892 61.6915C137.833 61.4454 137.8 61.0611 137.792 60.5384C137.785 60.0024 137.821 59.2829 137.9 58.3796C137.96 57.6889 138.066 56.9419 138.216 56.1387C137.509 57.1877 136.761 58.0927 135.972 58.8536C135.197 59.6023 134.458 60.1668 133.756 60.5471C133.067 60.9286 132.49 61.099 132.025 61.0584C131.454 61.0085 131.005 60.7753 130.68 60.3588C130.368 59.9567 130.244 59.3837 130.309 58.6399C130.366 57.989 130.577 57.3316 130.943 56.6676C131.309 56.0036 131.773 55.3616 132.336 54.7415C132.9 54.1082 133.513 53.5194 134.176 52.975C134.84 52.4307 135.496 51.9594 136.147 51.5612C136.812 51.1508 137.421 50.8427 137.974 50.6367C138.529 50.4175 138.972 50.3224 139.304 50.3514C139.437 50.363 139.553 50.4199 139.651 50.5222C139.749 50.6244 139.792 50.742 139.78 50.8748ZM139.467 51.4698C139.366 51.5547 139.245 51.6378 139.104 51.7192C138.963 51.8005 138.809 51.8874 138.64 51.9797C138.02 52.3404 137.334 52.7623 136.582 53.2454C135.845 53.7164 135.13 54.2428 134.436 54.8247C133.758 55.3944 133.189 56.0072 132.73 56.6631C132.271 57.319 132.01 58.0122 131.946 58.7428C131.918 59.0616 132.064 59.2349 132.382 59.2627C132.821 59.301 133.317 59.1369 133.871 58.7704C134.439 58.3918 135.035 57.8549 135.658 57.1598C136.282 56.4515 136.917 55.6169 137.563 54.6562C138.21 53.6821 138.845 52.62 139.467 51.4698ZM144.406 61.4776C144.153 61.4556 143.936 61.3429 143.753 61.1395C143.571 60.9228 143.498 60.6086 143.534 60.1969C143.559 59.9047 143.635 59.503 143.76 58.992C143.886 58.4676 144.043 57.8991 144.23 57.2864C144.417 56.6737 144.611 56.0683 144.81 55.47C145.024 54.8597 145.232 54.3157 145.435 53.8382C145.637 53.3606 145.808 53.0075 145.949 52.7789C146.071 52.6022 146.181 52.4914 146.279 52.4464C146.39 52.4025 146.492 52.3847 146.585 52.3928C146.771 52.409 146.925 52.4827 147.047 52.6139C147.183 52.7462 147.236 52.985 147.206 53.3304C147.188 53.5296 147.119 53.8582 146.999 54.3161C146.893 54.762 146.754 55.2851 146.581 55.8857C146.422 56.4741 146.249 57.0813 146.06 57.7073C145.886 58.3212 145.714 58.9084 145.545 59.4691C145.375 60.0299 145.241 60.4999 145.141 60.8793C145.069 61.0872 144.961 61.2451 144.818 61.353C144.689 61.4489 144.552 61.4904 144.406 61.4776ZM147.321 50.6302C147.015 50.6035 146.731 50.485 146.469 50.2747C146.219 50.0655 146.113 49.755 146.149 49.3433C146.179 48.9979 146.283 48.7259 146.461 48.5273C146.652 48.3299 146.865 48.1945 147.098 48.1213C147.347 48.0359 147.557 48.0008 147.73 48.0159C147.903 48.031 148.092 48.0876 148.297 48.1859C148.517 48.272 148.698 48.4217 148.84 48.6349C148.984 48.8347 149.039 49.1206 149.006 49.4926C148.984 49.7449 148.878 49.9632 148.688 50.1473C148.499 50.3182 148.274 50.4458 148.012 50.53C147.764 50.6153 147.534 50.6487 147.321 50.6302ZM150.128 62.3992C149.623 62.3551 149.225 62.0861 148.934 61.5922C148.657 61.0861 148.552 60.4546 148.618 59.6974C148.679 58.9935 148.913 58.3112 149.318 57.6507C149.737 56.9913 150.267 56.3684 150.907 55.7819C151.547 55.1953 152.236 54.6666 152.973 54.1956C153.711 53.7114 154.443 53.3002 155.169 52.9621C155.908 52.6251 156.579 52.3692 157.183 52.1945C157.787 52.0197 158.262 51.9475 158.607 51.9776C158.793 51.9939 158.943 52.0471 159.055 52.1372C159.169 52.2141 159.218 52.3455 159.202 52.5314C159.191 52.651 159.135 52.7598 159.032 52.858C159.046 52.8591 159.059 52.8603 159.072 52.8614C159.365 52.887 159.496 53.0724 159.465 53.4178C159.455 53.5373 159.387 53.779 159.262 54.1428C159.137 54.4933 158.991 54.9356 158.824 55.4698C158.657 56.0039 158.498 56.599 158.347 57.255C158.197 57.8977 158.093 58.5578 158.034 59.2352C157.984 59.8064 158.178 60.1111 158.616 60.1494C159.108 60.1923 159.616 60.123 160.14 59.9412C160.665 59.7595 161.18 59.5302 161.686 59.2532C162.193 58.9629 162.66 58.6758 163.086 58.3918C163.514 58.0945 163.877 57.8452 164.175 57.6437C164.474 57.4423 164.683 57.3468 164.803 57.3573C164.909 57.3665 164.999 57.4079 165.073 57.4812C165.147 57.5546 165.177 57.6644 165.165 57.8105C165.153 57.9433 164.999 58.1708 164.704 58.4929C164.408 58.8151 164.021 59.1762 163.545 59.5762C163.068 59.9762 162.54 60.3583 161.959 60.7225C161.378 61.0867 160.791 61.3767 160.197 61.5924C159.602 61.8082 159.046 61.8934 158.528 61.8482C158.13 61.8134 157.775 61.6619 157.464 61.3938C157.167 61.1136 156.945 60.6659 156.798 60.0508C156.664 59.4368 156.643 58.6051 156.735 57.5558L156.778 57.0577C156.034 58.0767 155.264 58.9999 154.469 59.8272C153.687 60.6556 152.921 61.3047 152.17 61.7745C151.433 62.2455 150.753 62.4537 150.128 62.3992ZM158.104 53.3791C158.035 53.3999 157.938 53.4316 157.814 53.4743C157.179 53.6998 156.511 53.9895 155.811 54.3432C155.124 54.6981 154.447 55.1007 153.778 55.5509C153.123 56.0022 152.526 56.4787 151.987 56.9804C151.448 57.482 151.008 57.999 150.667 58.5314C150.326 59.0637 150.132 59.5956 150.086 60.1269C150.071 60.2995 150.092 60.4353 150.151 60.534C150.222 60.634 150.351 60.6921 150.537 60.7083C150.803 60.7315 151.162 60.5957 151.617 60.3007C152.072 59.9925 152.576 59.5815 153.13 59.0678C153.696 58.5551 154.268 57.9828 154.846 57.3506C155.423 56.7184 155.974 56.0773 156.499 55.4272C157.038 54.7783 157.505 54.1767 157.902 53.6224C157.963 53.5341 158.03 53.453 158.104 53.3791ZM166.649 63.6017C165.998 63.5448 165.447 63.3494 164.994 63.0154C164.556 62.6693 164.231 62.2461 164.021 61.7459C163.81 61.2456 163.727 60.7431 163.771 60.2384C163.864 59.1758 164.135 58.2224 164.583 57.3782C165.033 56.5208 165.566 55.7777 166.183 55.149C166.815 54.5082 167.45 53.9748 168.09 53.5489C168.742 53.1241 169.325 52.8136 169.837 52.6175C170.364 52.4092 170.734 52.3143 170.946 52.3329C171.371 52.37 171.565 52.6011 171.528 53.0262C171.511 53.2254 171.358 53.4463 171.069 53.6887C170.781 53.9179 170.416 54.1871 169.974 54.4965C169.532 54.8059 169.06 55.1594 168.557 55.5572C168.055 55.9416 167.574 56.3881 167.115 56.8967C166.656 57.3921 166.265 57.9602 165.942 58.6011C165.619 59.2288 165.424 59.9344 165.355 60.7181C165.286 61.5151 165.576 61.942 166.227 61.9988C166.825 62.0511 167.446 61.9915 168.09 61.8203C168.747 61.6502 169.397 61.4125 170.039 61.1072C170.696 60.7899 171.327 60.4569 171.933 60.1083C172.539 59.7597 173.09 59.4264 173.587 59.1084C174.084 58.7771 174.502 58.5125 174.84 58.3145C175.179 58.1166 175.415 58.0234 175.548 58.035C175.813 58.0582 175.933 58.2159 175.908 58.5082C175.888 58.734 175.709 59.0195 175.371 59.3647C175.033 59.7099 174.586 60.0791 174.03 60.4722C173.473 60.8652 172.857 61.2597 172.18 61.6556C171.504 62.0382 170.824 62.3871 170.141 62.7021C169.459 63.0039 168.809 63.2416 168.191 63.4152C167.588 63.5766 167.074 63.6388 166.649 63.6017ZM175.252 64.9756C174.96 64.9501 174.742 64.844 174.597 64.6574C174.452 64.4841 174.408 64.072 174.464 63.4212C174.517 62.8235 174.691 62.0557 174.987 61.1179C175.284 60.1668 175.664 59.1159 176.126 57.9651C176.588 56.8142 177.099 55.6276 177.661 54.4052C178.224 53.1695 178.805 51.9621 179.403 50.7831C180.016 49.5919 180.599 48.5052 181.154 47.523C181.359 47.1662 181.561 46.9229 181.759 46.793C181.958 46.6631 182.184 46.6092 182.436 46.6313C182.609 46.6464 182.75 46.7123 182.86 46.829C182.985 46.9336 183.038 47.0988 183.018 47.3246C183.011 47.4043 182.902 47.6557 182.691 48.079C182.493 48.5034 182.217 49.0614 181.862 49.7532C181.521 50.4461 181.138 51.2224 180.715 52.0822C180.292 52.942 179.858 53.8476 179.414 54.7992C178.969 55.7508 178.544 56.7108 178.138 57.6791C177.733 58.6342 177.379 59.5535 177.074 60.437C176.769 61.3205 176.546 62.1174 176.403 62.8277C176.756 62.4704 177.164 62.0108 177.628 61.4491C178.092 60.8873 178.587 60.2814 179.112 59.6313C179.637 58.9812 180.168 58.3384 180.706 57.7027C181.243 57.0671 181.769 56.4906 182.282 55.9734C182.796 55.4561 183.267 55.0488 183.694 54.7516C184.136 54.4422 184.51 54.3009 184.815 54.3276C185.32 54.3717 185.711 54.5665 185.989 54.9119C186.281 55.2453 186.396 55.764 186.335 56.4679C186.3 56.8664 186.178 57.3376 185.97 57.8816C185.775 58.4267 185.552 58.9961 185.299 59.5896C185.046 60.1832 184.816 60.752 184.608 61.296C184.413 61.8411 184.298 62.3129 184.263 62.7114C184.216 63.256 184.398 63.5462 184.81 63.5822C185.447 63.6379 186.097 63.5541 186.759 63.3309C187.434 63.1088 188.082 62.8174 188.702 62.4567C189.324 62.0828 189.899 61.7047 190.428 61.3226C190.957 60.9272 191.408 60.5918 191.78 60.3165C192.181 60.0169 192.508 59.8782 192.76 59.9002C193.079 59.9281 193.224 60.108 193.195 60.4401C193.187 60.5331 193.158 60.6376 193.107 60.7537C193.057 60.8697 192.937 61.0132 192.749 61.1841C192.515 61.4046 192.182 61.6901 191.75 62.0404C191.331 62.392 190.844 62.7643 190.287 63.1574C189.744 63.5516 189.157 63.9152 188.526 64.2482C187.908 64.5823 187.276 64.8483 186.629 65.0461C185.997 65.2318 185.389 65.2992 184.805 65.2481C184.008 65.1785 183.41 64.8987 183.011 64.4088C182.626 63.9068 182.47 63.2506 182.54 62.4404C182.585 61.9356 182.718 61.3316 182.94 60.6282C183.162 59.9249 183.427 59.1852 183.736 58.4091C184.059 57.6209 184.38 56.8526 184.7 56.1043C184.25 56.3594 183.746 56.7571 183.191 57.2974C182.649 57.8257 182.074 58.4312 181.466 59.1142C180.859 59.7839 180.25 60.4669 179.641 61.1631C179.044 61.8605 178.466 62.506 177.906 63.0995C177.36 63.6808 176.857 64.1455 176.398 64.4936C175.94 64.8416 175.558 65.0023 175.252 64.9756ZM195.334 60.8679C195.215 60.8575 195.114 60.7884 195.031 60.6608C194.963 60.521 194.938 60.3448 194.957 60.1323C194.983 59.8401 195.076 59.3865 195.237 58.7715C195.412 58.1443 195.629 57.4205 195.888 56.5999C196.162 55.7672 196.465 54.9037 196.797 54.0092C197.143 53.1159 197.5 52.2437 197.869 51.3926C198.239 50.5282 198.6 49.7634 198.953 49.0982C199.192 48.6507 199.458 48.4397 199.751 48.4653C200.056 48.4919 200.322 48.6624 200.549 48.9767C200.776 49.291 200.871 49.6606 200.834 50.0857C200.82 50.2451 200.714 50.537 200.516 50.9614C200.332 51.3869 200.086 51.9008 199.779 52.5031C199.486 53.1065 199.161 53.754 198.807 54.4458C198.452 55.1375 198.089 55.842 197.719 56.5591C197.362 57.2641 197.03 57.931 196.721 58.5598C196.411 59.1886 196.163 59.7357 195.975 60.2012C195.856 60.4853 195.753 60.6703 195.665 60.7563C195.578 60.8423 195.467 60.8796 195.334 60.8679ZM193.64 66.7026C193.441 66.6852 193.245 66.5543 193.052 66.31C192.859 66.0656 192.793 65.598 192.853 64.9073C192.887 64.5221 193.038 64.2476 193.307 64.0837C193.577 63.9065 193.911 63.8353 194.309 63.8701C194.987 63.9293 195.295 64.3109 195.233 65.0149C195.204 65.3469 195.098 65.6388 194.916 65.8906C194.732 66.1556 194.52 66.3579 194.28 66.4976C194.053 66.6517 193.839 66.72 193.64 66.7026Z" fill="#F5F3E7"/>
<path d="M168.685 116.426C169.297 116.271 172.391 113.151 174.96 110.108C177.036 107.644 177.489 107.025 177.932 106.066C178.477 104.882 178.516 104.037 178.064 103.038C177.834 102.537 177.836 102.528 178.054 102.36C178.307 102.171 178.488 101.568 178.403 101.25C178.348 101.019 178.092 100.839 177.125 100.345C176.113 99.8303 172.716 97.9232 171.201 97.0125C169.771 96.1616 169.336 96.0298 168.924 96.3011C168.595 96.5219 168.393 97.17 168.548 97.4843C168.739 97.8567 172.183 100.54 173.875 101.631C175.014 102.364 175.682 102.947 175.879 103.381C176.25 104.212 175.927 105.467 174.993 106.828C173.673 108.734 170.76 112.015 168.509 114.12C167.418 115.136 167.306 115.358 167.598 115.893C167.822 116.293 168.295 116.523 168.685 116.426Z" fill="#F5F3E7"/>
<path d="M157.178 107.199C158.203 107.319 159.508 107.386 160.873 107.408C162.241 107.42 165.739 107.116 167.311 106.848C170.064 106.37 174.616 105.171 175.182 104.787C175.412 104.612 175.464 104.515 175.519 104.111C175.561 103.803 175.529 103.557 175.438 103.397C175.176 102.988 174.772 102.973 173.593 103.342C165.259 105.941 157.942 106.225 152.846 104.149C147.687 102.048 145.761 98.6082 145.225 90.498C144.92 85.9872 145.151 82.0688 145.995 77.231L146.25 75.801L146.011 75.4669C145.721 75.0514 145.191 74.8975 144.755 75.1035C144.478 75.2274 144.455 75.2816 144.275 76.0538C143.164 80.7994 142.872 87.9909 143.569 93.5865C144.397 100.275 146.574 103.496 151.859 105.825C152.713 106.204 156.067 107.068 157.178 107.199Z" fill="#F5F3E7"/>
</svg>
