<svg width="41" height="41" viewBox="0 0 41 41" fill="none" xmlns="http://www.w3.org/2000/svg">
<path d="M22.0482 3.93909C23.9232 3.94409 24.8749 3.95409 25.6965 3.97742L26.0199 3.98909C26.3932 4.00242 26.7615 4.01909 27.2065 4.03909C28.9799 4.12242 30.1899 4.40242 31.2515 4.81409C32.3515 5.23742 33.2782 5.81075 34.2049 6.73575C35.0527 7.56864 35.7085 8.57654 36.1265 9.68909C36.5382 10.7508 36.8182 11.9608 36.9015 13.7358C36.9215 14.1791 36.9382 14.5474 36.9515 14.9224L36.9615 15.2458C36.9865 16.0658 36.9965 17.0174 36.9999 18.8924L37.0015 20.1358V22.3191C37.0056 23.5348 36.9928 24.7504 36.9632 25.9658L36.9532 26.2891C36.9399 26.6641 36.9232 27.0324 36.9032 27.4758C36.8199 29.2508 36.5365 30.4591 36.1265 31.5224C35.7085 32.635 35.0527 33.6429 34.2049 34.4758C33.372 35.3236 32.3641 35.9794 31.2515 36.3974C30.1899 36.8091 28.9799 37.0891 27.2065 37.1724L26.0199 37.2224L25.6965 37.2324C24.8749 37.2558 23.9232 37.2674 22.0482 37.2708L20.8049 37.2724H18.6232C17.407 37.2767 16.1907 37.2639 14.9749 37.2341L14.6515 37.2241C14.2559 37.2091 13.8603 37.1919 13.4649 37.1724C11.6915 37.0891 10.4815 36.8091 9.41818 36.3974C8.30623 35.9792 7.29892 35.3234 6.46652 34.4758C5.61809 33.643 4.9617 32.6351 4.54318 31.5224C4.13152 30.4608 3.85152 29.2508 3.76818 27.4758L3.71818 26.2891L3.70985 25.9658C3.67913 24.7504 3.66524 23.5348 3.66818 22.3191V18.8924C3.66357 17.6768 3.67579 16.4611 3.70485 15.2458L3.71652 14.9224C3.72985 14.5474 3.74652 14.1791 3.76652 13.7358C3.84985 11.9608 4.12985 10.7524 4.54152 9.68909C4.96101 8.57608 5.61856 7.56815 6.46818 6.73575C7.30011 5.88834 8.30683 5.23254 9.41818 4.81409C10.4815 4.40242 11.6899 4.12242 13.4649 4.03909C13.9082 4.01909 14.2782 4.00242 14.6515 3.98909L14.9749 3.97909C16.1902 3.94947 17.4058 3.9367 18.6215 3.94075L22.0482 3.93909ZM20.3349 12.2724C18.1247 12.2724 16.0051 13.1504 14.4423 14.7132C12.8795 16.276 12.0015 18.3956 12.0015 20.6058C12.0015 22.8159 12.8795 24.9355 14.4423 26.4983C16.0051 28.0611 18.1247 28.9391 20.3349 28.9391C22.545 28.9391 24.6646 28.0611 26.2274 26.4983C27.7902 24.9355 28.6682 22.8159 28.6682 20.6058C28.6682 18.3956 27.7902 16.276 26.2274 14.7132C24.6646 13.1504 22.545 12.2724 20.3349 12.2724ZM20.3349 15.6058C20.9915 15.6056 21.6417 15.7349 22.2483 15.986C22.855 16.2372 23.4063 16.6054 23.8706 17.0696C24.335 17.5338 24.7034 18.085 24.9548 18.6916C25.2061 19.2982 25.3356 19.9483 25.3357 20.6049C25.3358 21.2615 25.2066 21.9117 24.9554 22.5184C24.7042 23.1251 24.336 23.6763 23.8718 24.1407C23.4076 24.6051 22.8565 24.9735 22.2499 25.2248C21.6433 25.4762 20.9931 25.6056 20.3365 25.6058C19.0104 25.6058 17.7387 25.079 16.801 24.1413C15.8633 23.2036 15.3365 21.9318 15.3365 20.6058C15.3365 19.2797 15.8633 18.0079 16.801 17.0702C17.7387 16.1325 19.0104 15.6058 20.3365 15.6058M29.0865 9.77242C28.534 9.77242 28.0041 9.99191 27.6134 10.3826C27.2227 10.7733 27.0032 11.3032 27.0032 11.8558C27.0032 12.4083 27.2227 12.9382 27.6134 13.3289C28.0041 13.7196 28.534 13.9391 29.0865 13.9391C29.6391 13.9391 30.169 13.7196 30.5597 13.3289C30.9504 12.9382 31.1699 12.4083 31.1699 11.8558C31.1699 11.3032 30.9504 10.7733 30.5597 10.3826C30.169 9.99191 29.6391 9.77242 29.0865 9.77242Z" fill="#FFCC00"/>
</svg>
