<svg width="60" height="60" viewBox="0 0 60 60" fill="none" xmlns="http://www.w3.org/2000/svg">
<path d="M52.5 7.5C53.163 7.5 53.7989 7.76339 54.2678 8.23223C54.7366 8.70107 55 9.33696 55 10V45C55 45.663 54.7366 46.2989 54.2678 46.7678C53.7989 47.2366 53.163 47.5 52.5 47.5H16.1375L5 56.25V10C5 9.33696 5.26339 8.70107 5.73223 8.23223C6.20107 7.76339 6.83696 7.5 7.5 7.5H52.5ZM26.2875 18.53C21.82 20.4675 18.75 24.3875 18.75 28.7625C18.75 31.25 19.4425 32.785 20.73 34.1525C21.54 35.0125 22.8225 35.625 24.165 35.625C24.7395 35.625 25.3084 35.5118 25.8392 35.292C26.37 35.0721 26.8523 34.7498 27.2586 34.3436C27.6648 33.9373 27.9871 33.455 28.207 32.9242C28.4268 32.3934 28.54 31.8245 28.54 31.25C28.5344 30.1501 28.1171 29.0922 27.3702 28.2847C26.6233 27.4772 25.6011 26.9787 24.505 26.8875C24.1063 26.8478 23.7042 26.8562 23.3075 26.9125V26.6825C23.3225 25.5825 23.5575 22.3325 27.405 20.25L26.2875 18.53ZM38.7875 18.53C34.32 20.4675 31.25 24.3875 31.25 28.7625C31.25 31.25 31.9425 32.785 33.23 34.1525C34.04 35.0125 35.3225 35.625 36.665 35.625C37.8253 35.625 38.9381 35.1641 39.7586 34.3436C40.5791 33.5231 41.04 32.4103 41.04 31.25C41.0344 30.1501 40.6171 29.0922 39.8702 28.2847C39.1233 27.4772 38.1011 26.9787 37.005 26.8875C36.6063 26.8478 36.2042 26.8562 35.8075 26.9125V26.6825C35.8225 25.5825 36.0575 22.3325 39.905 20.25L38.7875 18.53Z" fill="#FFCC00"/>
</svg>
