<svg width="70" height="70" viewBox="0 0 70 70" fill="none" xmlns="http://www.w3.org/2000/svg">
<g clip-path="url(#clip0_374_1390)">
<path d="M35 70C15.6471 70 0 54.3529 0 35C0 15.6471 15.6471 0 35 0C54.3529 0 70 15.6471 70 35C70 54.3529 54.3529 70 35 70ZM35 4.11765C17.9118 4.11765 4.11765 17.9118 4.11765 35C4.11765 52.0882 17.9118 65.8824 35 65.8824C52.0882 65.8824 65.8824 52.0882 65.8824 35C65.8824 17.9118 52.0882 4.11765 35 4.11765Z" fill="#FFCC00"/>
<path d="M34.9999 54.3529L15.0293 34.3824L17.9117 31.5L34.9999 48.5882L52.0881 31.5L54.9705 34.3824L34.9999 54.3529Z" fill="#FFCC00"/>
<path d="M32.9412 16.4706H37.0588V51.4706H32.9412V16.4706Z" fill="#FFCC00"/>
</g>
<defs>
<clipPath id="clip0_374_1390">
<rect width="70" height="70" fill="white"/>
</clipPath>
</defs>
</svg>
