<svg width="101" height="83" viewBox="0 0 101 83" fill="none" xmlns="http://www.w3.org/2000/svg">
<path d="M45.3058 5.15178L45.3061 5.15144C46.5206 3.9632 47.647 2.87948 48.4834 2.09238C48.9014 1.69904 49.2481 1.37865 49.4977 1.15604C49.6221 1.04507 49.7245 0.956402 49.8005 0.89465C49.838 0.864185 49.8726 0.837288 49.9021 0.816917C49.9164 0.80703 49.9343 0.795315 49.9535 0.785069C49.9631 0.779961 49.9773 0.772915 49.9945 0.766624C50.0082 0.761604 50.0423 0.749996 50.0867 0.749996C50.1513 0.749996 50.1993 0.776108 50.2041 0.778736L50.2045 0.778927C50.2187 0.786266 50.23 0.793663 50.2361 0.797806C50.249 0.806622 50.2613 0.816216 50.2707 0.823807C50.2905 0.839821 50.315 0.861145 50.3427 0.885849C50.3988 0.935951 50.4776 1.00892 50.5769 1.10256C50.776 1.29029 51.0632 1.56623 51.4282 1.92033C52.1584 2.62877 53.2029 3.65281 54.4841 4.91592C57.0465 7.4423 60.5569 10.9265 64.3953 14.7582L78.3567 28.6934L78.4301 28.7667V28.8704V37.57V46.2697V46.5197H78.1801H77.7864H77.3928H77.1428V46.2697V38.0161V29.8792L64.2254 16.9357C60.6562 13.3599 57.4083 10.0923 55.0526 7.71037C53.8748 6.51946 52.9198 5.54967 52.2591 4.87336C51.9288 4.53531 51.6715 4.27003 51.4966 4.08694C51.4093 3.99559 51.3415 3.92363 51.2951 3.87295C51.2722 3.84794 51.2526 3.82615 51.2381 3.80899C51.2313 3.8009 51.2227 3.7905 51.2148 3.77971C51.2127 3.77692 51.2096 3.77259 51.2059 3.76711C51.2031 3.76289 51.2 3.758 51.1969 3.75261C51.1938 3.74735 51.1887 3.73811 51.1834 3.72604C51.1572 3.71701 51.1379 3.70683 51.1289 3.70203L51.1282 3.70169C51.099 3.68628 51.0701 3.66726 51.0438 3.64856C50.9905 3.61057 50.9283 3.55964 50.8628 3.50186C50.731 3.38562 50.5708 3.22876 50.4151 3.0595C50.4149 3.05926 50.4146 3.05902 50.4144 3.05878L50.0411 2.65879L46.117 6.58289L46.1167 6.58317L42.1749 10.5124L46.3127 14.5999L46.3133 14.6005C48.6756 16.9496 53.5179 21.7919 57.0742 25.3745L57.0743 25.3745L63.5301 31.8829L63.6026 31.956V32.0589V39.1708V46.2697V46.5197H63.3526H62.8934H62.4341H62.1841V46.2697V39.4726V32.7923L51.5763 22.1845L41.0585 11.6667L38.5454 14.1676L38.5449 14.1681L35.916 16.7715V31.4684V46.2697V46.5197H35.666H35.1411H34.6162H34.3662V46.2697V32.0064V18.3336L29.2163 23.4836L23.7129 28.987V37.57V46.2697V46.5197H23.4629H23.0036H22.5443H22.2943V46.2697V37.3076V28.3586V28.2551L22.3676 28.1818L28.4035 22.1459L34.3662 16.1832V9.89647C34.3662 7.61985 34.3761 6.01653 34.3991 4.98177C34.4106 4.46518 34.4255 4.0861 34.4445 3.83453C34.4538 3.71021 34.4648 3.609 34.4785 3.53555C34.485 3.50096 34.4945 3.45853 34.5106 3.41958C34.5182 3.40109 34.5336 3.36765 34.562 3.33486C34.5904 3.30207 34.6566 3.24311 34.7606 3.24311C34.8029 3.24311 34.8354 3.25373 34.8493 3.25866C34.866 3.26464 34.8796 3.2713 34.8885 3.27599C34.9063 3.28535 34.922 3.29569 34.9334 3.3036C34.9571 3.32 34.9836 3.34082 35.0106 3.36303C35.0657 3.40829 35.1387 3.47249 35.2261 3.55175C35.4015 3.71098 35.6442 3.93965 35.9359 4.21984C36.5198 4.78069 37.3051 5.55284 38.1522 6.39992L38.1525 6.40029L41.0609 9.32106L45.3058 5.15178ZM35.916 6.52417V10.5526C35.916 11.8185 35.9193 12.9725 35.9258 13.8097C35.9282 14.1196 35.9311 14.3856 35.9344 14.5975C36.0173 14.5134 36.1115 14.4174 36.2154 14.3111C36.628 13.8886 37.1917 13.3053 37.8081 12.6627L39.8827 10.4909L37.7724 8.38055L35.916 6.52417Z" fill="url(#paint0_linear_31_1961)" stroke="url(#paint1_linear_31_1961)" stroke-width="0.5"/>
<path d="M0.5 52.03V55.0611H0.893649H1.2873V53.9458V52.8305H2.442C3.36052 52.8305 3.67544 52.778 4.0166 52.568C5.07945 51.9251 5.07945 50.1536 4.0166 49.3795C3.72792 49.1695 3.38676 49.1039 2.08772 49.0514L0.5 48.9858V52.03ZM3.7148 50.1405C4.17406 50.5867 4.17406 51.4002 3.7148 51.8463C3.42612 52.135 3.29491 52.1744 2.33703 52.1744H1.2873V50.9934V49.8125H2.33703C3.29491 49.8125 3.42612 49.8519 3.7148 50.1405Z" fill="url(#paint2_linear_31_1961)"/>
<path d="M10.7349 52.03V55.0611H11.063C11.3779 55.0611 11.3779 55.0349 11.4172 53.972L11.4566 52.8961L12.3226 52.8567L13.1887 52.8173L13.7267 53.9458C14.2253 54.9824 14.2909 55.0611 14.6714 55.0611C14.8814 55.0611 15.0651 55.0349 15.0651 54.9955C15.0651 54.9562 14.8289 54.4444 14.5402 53.8671L14.0022 52.8173L14.3959 52.4499C14.737 52.1219 15.0651 51.3608 15.0651 50.8622C15.0651 50.7572 14.947 50.4161 14.8158 50.1143C14.4483 49.3139 13.9891 49.1302 12.2177 49.0514L10.7349 48.9858V52.03ZM13.9497 50.1405C14.3303 50.5079 14.3827 51.0722 14.0809 51.6364C13.8316 52.1219 13.6742 52.1744 12.4276 52.1744H11.391V50.9934V49.8125H12.5063C13.5298 49.8125 13.661 49.8387 13.9497 50.1405Z" fill="url(#paint3_linear_31_1961)"/>
<path d="M22.3475 49.222C21.7702 49.5107 21.1141 50.3111 20.9566 50.9147C20.7467 51.702 20.8517 53.1979 21.1797 53.8015C21.324 54.0901 21.6652 54.51 21.9408 54.72C22.4131 55.1005 22.505 55.1267 23.5941 55.1267C24.6832 55.1267 24.775 55.1005 25.2605 54.72C26.0216 54.1164 26.3759 53.2897 26.3759 52.135C26.3759 50.6785 25.8248 49.6419 24.8144 49.2089C24.2502 48.9596 22.8462 48.9727 22.3475 49.222ZM24.6176 49.9437C25.5099 50.4948 25.8773 51.7414 25.5099 52.9879C25.2212 54.0114 24.7226 54.4444 23.7647 54.51C22.3607 54.6019 21.6258 53.7752 21.6258 52.1088C21.6258 51.0197 21.8883 50.4161 22.5312 49.9831C23.1086 49.6025 24.014 49.5763 24.6176 49.9437Z" fill="url(#paint4_linear_31_1961)"/>
<path d="M31.6902 49.1171C31.6639 49.1827 32.0182 50.5342 32.4906 52.1482L33.3435 55.0743L33.7371 55.0349C34.1308 54.9955 34.1308 54.9824 34.7606 52.778C35.1149 51.5577 35.4167 50.5473 35.4429 50.5211C35.4692 50.4817 35.7841 51.479 36.1384 52.7255C36.7813 54.9824 36.7945 54.9955 37.175 55.0349L37.5686 55.0743L38.3953 52.2138C38.8414 50.6392 39.2088 49.2745 39.2088 49.1827C39.2088 49.1039 39.0645 49.0252 38.8808 49.0252C38.5265 49.0252 38.5921 48.8546 37.713 52.0301C37.4637 52.9092 37.2275 53.6703 37.2012 53.6965C37.175 53.7359 36.8601 52.7386 36.5189 51.4921C36.1646 50.2455 35.8497 49.1695 35.7972 49.1171C35.7447 49.0646 35.5479 49.0514 35.3642 49.0908C35.0624 49.1695 34.9837 49.3532 34.4063 51.4658C34.052 52.7124 33.7371 53.6965 33.6846 53.644C33.6453 53.5915 33.3172 52.5287 32.9761 51.2821C32.3987 49.1958 32.32 49.0252 32.0444 49.0252C31.887 49.0252 31.7164 49.0646 31.6902 49.1171Z" fill="url(#paint5_linear_31_1961)"/>
<path d="M45.1135 52.0432V55.0611H45.4416H45.7696L45.7959 52.7255L45.8352 50.403L47.3967 52.7255C48.8138 54.8381 48.9975 55.0611 49.3387 55.0611H49.7061V52.03V49.0121L49.3518 49.0514L48.9844 49.0908L48.9188 51.374L48.8532 53.6571L47.3049 51.3346C45.9927 49.3664 45.7171 49.0252 45.4416 49.0252H45.1135V52.0432Z" fill="url(#paint6_linear_31_1961)"/>
<path d="M56.0045 52.0432V55.0611H57.3823C58.1433 55.0611 58.76 55.1005 58.76 55.1399C58.76 55.1792 58.642 55.3629 58.4976 55.5466C57.8415 56.3864 58.642 57.5936 59.4686 56.99C59.7704 56.767 59.6261 56.3208 59.298 56.5045C59.0618 56.6226 58.76 56.452 58.76 56.2158C58.76 56.1502 58.9962 55.8484 59.298 55.5204C60.1509 54.5888 60.0328 54.4838 58.1958 54.4313L56.6606 54.3919V53.4209V52.4499L57.9465 52.4106L59.2193 52.3712L59.2587 52.0038L59.298 51.6495H57.9859H56.6606V50.731V49.8256L58.2089 49.7862L59.7442 49.7469V49.4188V49.0908L57.8809 49.0514L56.0045 49.0121V52.0432Z" fill="url(#paint7_linear_31_1961)"/>
<path d="M65.3209 49.4188V49.8125H66.3706H67.4204V52.4368V55.0611H67.7484H68.0764V52.4368V49.8125H69.1262H70.1759V49.4188V49.0252H67.7484H65.3209V49.4188Z" fill="url(#paint8_linear_31_1961)"/>
<path d="M75.9494 52.03V55.0611H76.2774C76.5924 55.0611 76.5924 55.0349 76.6317 53.972L76.6711 52.8961L77.524 52.8567L78.3769 52.8173L78.928 53.9458C79.4398 54.9693 79.5185 55.0611 79.8728 55.0611H80.2664L79.7416 53.9196C79.2298 52.8173 79.2167 52.7649 79.4529 52.568C79.9515 52.1613 80.1483 51.7282 80.1483 51.0197C80.1483 49.5369 79.6103 49.1564 77.4321 49.0514L75.9494 48.9858V52.03ZM79.0986 50.0749C79.4529 50.4292 79.5447 50.9016 79.361 51.4527C79.1511 52.0694 78.9149 52.1744 77.6683 52.1744H76.6055V50.9934V49.8125H77.7208C78.6525 49.8125 78.8755 49.8519 79.0986 50.0749Z" fill="url(#paint9_linear_31_1961)"/>
<path d="M86.3155 49.4188V49.7994L87.7982 49.8387L89.2941 49.8781L87.7458 52.3712C86.8928 53.7359 86.1974 54.9037 86.1974 54.9562C86.1843 55.0218 87.1553 55.0611 88.3493 55.0611H90.5144V54.7331V54.4051H89.0054C88.1788 54.4051 87.4964 54.3788 87.4964 54.3395C87.4964 54.3001 88.1788 53.1585 89.0054 51.7939C89.8321 50.4423 90.5144 49.2614 90.5144 49.1826C90.5144 49.0646 89.9371 49.0252 88.415 49.0252H86.3155V49.4188Z" fill="url(#paint10_linear_31_1961)"/>
<path d="M96.6816 52.0432V55.0611H98.5842H100.487V54.7331V54.4051H98.9123H97.3377V53.4209V52.4368H98.6498H99.962V52.0432V51.6495H98.6498H97.3377V50.731V49.8125H98.9254H100.5L100.461 49.4451L100.421 49.0908L98.558 49.0514L96.6816 49.0121V52.0432Z" fill="url(#paint11_linear_31_1961)"/>
<path d="M22.5443 81.8168H22.2943V81.5668V69.5605V57.5542V57.3042H22.5443H23.0036H23.4629H23.7129V57.5542V69.5605V81.5668V81.8168H23.4629H23.0036H22.5443Z" fill="url(#paint12_linear_31_1961)" stroke="url(#paint13_linear_31_1961)" stroke-width="0.5"/>
<path d="M34.6163 82.0793H34.3663V81.8293V69.6918V57.5543V57.3043H34.6163H35.1411H35.666H35.916V57.5543V69.2325V80.6608H39.8649H43.8138V71.332V61.7532V61.5032H44.0638H49.155C51.9468 61.5032 54.725 61.5424 55.3257 61.5825L55.3257 61.5824L55.3306 61.5828L56.3935 61.6747L56.5815 61.6909L56.6174 61.8763L56.6961 62.283L56.6961 62.283L56.6969 62.2871C56.7052 62.3345 56.711 62.4297 56.7163 62.5419C56.722 62.6632 56.728 62.8272 56.7342 63.0284C56.7465 63.4309 56.7597 63.9859 56.7728 64.6531C56.799 65.9875 56.8253 67.7728 56.845 69.6892C56.8844 73.5076 56.9499 77.5978 56.9892 78.7629C56.9892 78.7631 56.9892 78.7633 56.9892 78.7635L57.059 80.6608H67.1054H77.1428V69.2325V57.5543V57.3043H77.3928H77.7864H78.1801H78.4301V57.5543V69.6918V81.8293V82.0793H78.1801H56.3982H34.6163ZM45.3636 63.1841V71.9224V80.6608H50.4278H55.4982L55.4266 78.0571L55.4266 78.0566C55.3872 76.4933 55.3215 72.4505 55.2822 69.0648L55.2066 63.1841H50.2835H45.3636Z" fill="url(#paint14_linear_31_1961)" stroke="url(#paint15_linear_31_1961)" stroke-width="0.5"/>
<defs>
<linearGradient id="paint0_linear_31_1961" x1="22.5443" y1="23.6348" x2="78.1801" y2="23.6348" gradientUnits="userSpaceOnUse">
<stop stop-color="#E7C91F"/>
<stop offset="1" stop-color="#FFCC00"/>
</linearGradient>
<linearGradient id="paint1_linear_31_1961" x1="22.5443" y1="23.6348" x2="78.1801" y2="23.6348" gradientUnits="userSpaceOnUse">
<stop stop-color="#E7C91F"/>
<stop offset="1" stop-color="#FFCC00"/>
</linearGradient>
<linearGradient id="paint2_linear_31_1961" x1="0.5" y1="52.0235" x2="4.81374" y2="52.0235" gradientUnits="userSpaceOnUse">
<stop stop-color="#E7C91F"/>
<stop offset="1" stop-color="#FFCC00"/>
</linearGradient>
<linearGradient id="paint3_linear_31_1961" x1="10.7349" y1="52.0235" x2="15.0651" y2="52.0235" gradientUnits="userSpaceOnUse">
<stop stop-color="#E7C91F"/>
<stop offset="1" stop-color="#FFCC00"/>
</linearGradient>
<linearGradient id="paint4_linear_31_1961" x1="20.848" y1="52.0775" x2="26.3759" y2="52.0775" gradientUnits="userSpaceOnUse">
<stop stop-color="#E7C91F"/>
<stop offset="1" stop-color="#FFCC00"/>
</linearGradient>
<linearGradient id="paint5_linear_31_1961" x1="31.6888" y1="52.0489" x2="39.2088" y2="52.0489" gradientUnits="userSpaceOnUse">
<stop stop-color="#E7C91F"/>
<stop offset="1" stop-color="#FFCC00"/>
</linearGradient>
<linearGradient id="paint6_linear_31_1961" x1="45.1135" y1="52.0366" x2="49.7061" y2="52.0366" gradientUnits="userSpaceOnUse">
<stop stop-color="#E7C91F"/>
<stop offset="1" stop-color="#FFCC00"/>
</linearGradient>
<linearGradient id="paint7_linear_31_1961" x1="56.0045" y1="53.0825" x2="59.8087" y2="53.0825" gradientUnits="userSpaceOnUse">
<stop stop-color="#E7C91F"/>
<stop offset="1" stop-color="#FFCC00"/>
</linearGradient>
<linearGradient id="paint8_linear_31_1961" x1="65.3209" y1="52.0432" x2="70.1759" y2="52.0432" gradientUnits="userSpaceOnUse">
<stop stop-color="#E7C91F"/>
<stop offset="1" stop-color="#FFCC00"/>
</linearGradient>
<linearGradient id="paint9_linear_31_1961" x1="75.9494" y1="52.0235" x2="80.2664" y2="52.0235" gradientUnits="userSpaceOnUse">
<stop stop-color="#E7C91F"/>
<stop offset="1" stop-color="#FFCC00"/>
</linearGradient>
<linearGradient id="paint10_linear_31_1961" x1="86.1973" y1="52.0432" x2="90.5144" y2="52.0432" gradientUnits="userSpaceOnUse">
<stop stop-color="#E7C91F"/>
<stop offset="1" stop-color="#FFCC00"/>
</linearGradient>
<linearGradient id="paint11_linear_31_1961" x1="96.6816" y1="52.0366" x2="100.5" y2="52.0366" gradientUnits="userSpaceOnUse">
<stop stop-color="#E7C91F"/>
<stop offset="1" stop-color="#FFCC00"/>
</linearGradient>
<linearGradient id="paint12_linear_31_1961" x1="22.5443" y1="69.5605" x2="23.4629" y2="69.5605" gradientUnits="userSpaceOnUse">
<stop stop-color="#E7C91F"/>
<stop offset="1" stop-color="#FFCC00"/>
</linearGradient>
<linearGradient id="paint13_linear_31_1961" x1="22.5443" y1="69.5605" x2="23.4629" y2="69.5605" gradientUnits="userSpaceOnUse">
<stop stop-color="#E7C91F"/>
<stop offset="1" stop-color="#FFCC00"/>
</linearGradient>
<linearGradient id="paint14_linear_31_1961" x1="34.6163" y1="69.6918" x2="78.1801" y2="69.6918" gradientUnits="userSpaceOnUse">
<stop stop-color="#E7C91F"/>
<stop offset="1" stop-color="#FFCC00"/>
</linearGradient>
<linearGradient id="paint15_linear_31_1961" x1="34.6163" y1="69.6918" x2="78.1801" y2="69.6918" gradientUnits="userSpaceOnUse">
<stop stop-color="#E7C91F"/>
<stop offset="1" stop-color="#FFCC00"/>
</linearGradient>
</defs>
</svg>
