<svg width="99" height="12" viewBox="0 0 99 12" fill="none" preserveAspectRatio="none" xmlns="http://www.w3.org/2000/svg">
<path d="M37.3877 0.0384741C36.9174 0.0604446 36.0172 0.104385 35.389 0.137341C34.7608 0.170297 34.2166 0.21973 34.1797 0.247193C34.1427 0.274656 33.7732 0.313105 33.3567 0.329582C32.9402 0.34606 32.406 0.384509 32.1642 0.411972C31.9257 0.444927 31.6032 0.47239 31.4487 0.477883C31.2975 0.483376 31.1665 0.505346 31.1564 0.527317C31.1497 0.549287 30.9414 0.571257 30.6962 0.57675C30.451 0.582243 30.2327 0.615198 30.2091 0.642661C30.1856 0.675617 29.7792 0.708573 29.2014 0.725051C28.6706 0.741528 28.0391 0.763499 27.7973 0.779977C27.5588 0.796455 27.1557 0.818425 26.9071 0.82941C26.6585 0.840395 26.2957 0.878844 26.1009 0.906307C25.5701 0.994189 25.0763 1.02165 24.0115 1.02714C23.4774 1.02714 23.044 1.05461 23.044 1.08207C23.044 1.10404 22.7148 1.137 22.3151 1.15347C21.912 1.16446 21.0386 1.20291 20.3735 1.24136C19.7084 1.27431 19.05 1.30727 18.9123 1.31276C18.7745 1.31825 18.6536 1.34022 18.6435 1.3567C18.6334 1.37867 18.2471 1.41163 17.7869 1.42261C15.2743 1.49951 13.6619 1.57641 13.4536 1.62584C13.326 1.6533 12.859 1.68077 12.4223 1.68626C11.9823 1.68626 11.6161 1.70823 11.6061 1.7302C11.5859 1.79062 10.9141 1.84554 10.0508 1.85653C9.65774 1.85653 9.32854 1.88399 9.31846 1.91146C9.30838 1.93343 8.97582 1.9554 8.57944 1.9554C8.1797 1.9554 7.83035 1.97737 7.80011 2.00483C7.75309 2.04328 6.93009 2.0982 5.91226 2.12567C5.79133 2.13116 5.6704 2.15313 5.64353 2.1751C5.61665 2.19707 5.34456 2.23003 5.03888 2.2465C4.43087 2.27946 3.9505 2.36734 3.79598 2.46621C3.76911 2.48269 3.66162 2.51015 3.56084 2.52663C3.23836 2.57057 2.70761 2.71338 2.5934 2.77929C2.51614 2.82323 2.48927 2.87266 2.49934 2.92759C2.50942 2.97153 2.5195 3.02096 2.5195 3.03195C2.5195 3.07589 2.65051 3.05392 2.6673 3.00449C2.67738 2.97702 2.79831 2.93857 2.92932 2.91111C3.06368 2.88914 3.20477 2.86168 3.24172 2.85069C3.27867 2.83971 3.3996 2.81774 3.51045 2.80126C3.62131 2.78478 3.7288 2.74633 3.7456 2.72436C3.78255 2.67493 4.0412 2.61451 4.24275 2.60352C4.3133 2.59803 4.37712 2.57606 4.3872 2.5486C4.39727 2.52663 4.62906 2.50466 4.90451 2.50466C5.17996 2.50466 5.43862 2.48269 5.48229 2.45522C5.55955 2.41128 6.77893 2.3234 7.3735 2.3234C7.54146 2.3234 7.69262 2.30692 7.71278 2.27946C7.72957 2.252 8.10244 2.22453 8.53577 2.21355C8.96911 2.20256 9.58719 2.16412 9.90967 2.13116C10.2322 2.0982 10.726 2.05426 11.0014 2.03779C11.2802 2.02131 11.5825 1.99384 11.6732 1.98286C11.7673 1.96638 12.1738 1.94441 12.5802 1.92793C12.9867 1.91695 13.7358 1.8785 14.243 1.84554C14.7502 1.81808 15.4322 1.79062 15.7546 1.78513C16.0771 1.78513 16.4332 1.75766 16.544 1.7302C16.6549 1.70274 17.1386 1.68077 17.619 1.68077C18.0993 1.67527 18.5058 1.6533 18.5259 1.63133C18.5562 1.58739 19.097 1.55444 20.4407 1.49402C21.1763 1.46655 22.3151 1.39515 22.4562 1.37318C22.5301 1.36219 22.9903 1.34022 23.4807 1.32375C24.821 1.2798 25.812 1.21389 25.859 1.16446C25.8725 1.15347 26.2084 1.1315 26.6048 1.12601C27.0011 1.12052 27.3572 1.09855 27.3975 1.07109C27.4378 1.04911 27.9115 1.01067 28.4557 0.994189C30.0949 0.928277 29.9874 0.93377 30.6861 0.823918C30.7802 0.812932 31.1262 0.774484 31.4554 0.747021C31.7846 0.719558 32.1172 0.68111 32.1944 0.659139C32.2683 0.642661 32.7218 0.604213 33.2055 0.57675C34.1192 0.527317 35.1001 0.444927 35.2815 0.395494C35.342 0.379016 35.9936 0.351553 36.7327 0.335075C37.4717 0.313105 38.1569 0.274656 38.2577 0.241701C38.4962 0.170297 46.004 0.164804 46.1215 0.241701C46.1686 0.269164 46.4407 0.296627 46.7262 0.302119C47.0117 0.307612 47.6634 0.340568 48.1706 0.373523C49.212 0.444927 50.4112 0.444927 51.6306 0.373523C52.4569 0.329582 60.8381 0.335075 61.1538 0.384509C61.2479 0.395494 61.8055 0.428449 62.3967 0.444927C62.9879 0.466898 63.4985 0.505346 63.5288 0.532809C63.559 0.560272 63.9688 0.609706 64.4357 0.642661C64.9027 0.675617 65.5745 0.719558 65.9239 0.741528C66.2766 0.768992 66.599 0.80744 66.6461 0.82941C66.6931 0.851381 67.0861 0.878844 67.5195 0.889829C67.9528 0.900814 68.4164 0.928277 68.544 0.939263C68.675 0.95574 69.1184 0.983203 69.535 0.994189C69.9515 1.01067 70.3512 1.04911 70.4251 1.07658C70.499 1.10404 71.1406 1.14249 71.8528 1.15897C72.5616 1.18094 73.1662 1.21389 73.1965 1.24136C73.2401 1.2798 73.7507 1.30177 74.9331 1.31825C75.1381 1.32375 75.3195 1.34022 75.3329 1.36219C75.3698 1.42811 75.5747 1.41712 75.5983 1.35121C75.6117 1.31276 75.6419 1.31276 75.6856 1.35121C75.783 1.43909 75.9879 1.40064 75.9779 1.29628C75.9678 1.23037 75.9073 1.21389 75.6319 1.21389C75.4471 1.21389 75.2758 1.19192 75.2489 1.16446C75.212 1.12601 75.2086 1.1315 75.2288 1.19192C75.2523 1.25234 75.2489 1.25783 75.2086 1.2084C75.1481 1.12601 74.1404 1.05461 72.2727 0.994189C71.7386 0.977711 71.275 0.944755 71.2481 0.922785C71.1642 0.862366 70.3949 0.80744 69.0647 0.768992C67.8184 0.730543 67.0425 0.68111 66.814 0.615198C66.7502 0.598721 66.5083 0.571257 66.2766 0.55478C66.0448 0.538302 65.7996 0.516331 65.7324 0.505346C65.6618 0.494361 65.2688 0.466898 64.859 0.444927C64.4458 0.422957 64.0427 0.384509 63.9621 0.362538C63.8815 0.340568 63.6094 0.313105 63.3574 0.313105C63.1089 0.307612 62.8872 0.280149 62.867 0.258178C62.8502 0.230715 62.8099 0.214238 62.783 0.208745C62.7562 0.208745 62.0541 0.192267 61.221 0.170297C60.3913 0.153819 59.4239 0.120863 59.0711 0.104385C57.8417 0.0439667 53.4177 0.0384741 53.3034 0.0934003C53.2329 0.126356 52.1143 0.153819 50.3339 0.159312C47.8549 0.164804 47.4652 0.159312 47.4148 0.0879076C47.3611 0.0165037 46.7631 0.00551845 42.7993 2.5838e-05C40.2934 2.5838e-05 37.858 0.0165037 37.3877 0.0384741Z" fill="#FFCC00"/>
<path d="M42.6951 0.84028C42.6312 0.845773 41.8687 0.867743 40.9987 0.884221C40.132 0.900699 39.3829 0.917176 39.3359 0.917176C39.2889 0.922669 39.1982 0.922669 39.1343 0.917176C39.01 0.906191 38.5364 0.939147 38.1434 0.98858C38.0157 1.00506 37.5421 1.02154 37.092 1.02703C36.6452 1.02703 36.269 1.05449 36.2589 1.08195C36.2488 1.10942 35.9196 1.13139 35.5232 1.13139C35.1268 1.13139 34.7708 1.15336 34.7271 1.18082C34.6498 1.22476 33.7529 1.29067 32.9871 1.30166C32.7754 1.30715 32.584 1.32912 32.5672 1.35109C32.547 1.37856 32.3891 1.41151 32.2144 1.4225C32.0398 1.43897 31.6232 1.47742 31.2907 1.50489C30.9581 1.53784 30.6054 1.5708 30.5113 1.57629C30.4139 1.58178 30.3333 1.60925 30.3333 1.63122C30.3333 1.65319 29.8462 1.68614 29.2517 1.69713C28.6537 1.71361 28.0995 1.73558 28.0155 1.74656C27.824 1.77402 26.8465 1.84543 26.3325 1.8674C26.1175 1.87838 25.9294 1.90035 25.9093 1.91683C25.8925 1.93331 25.5969 1.95528 25.2576 1.95528C24.9183 1.96077 24.6261 1.98274 24.6059 2.01021C24.5891 2.03218 23.8333 2.07063 22.9263 2.09809C20.9478 2.14752 21.1057 2.13654 21.0754 2.18597C21.0418 2.24639 20.8672 2.2409 20.8437 2.18048C20.8336 2.14752 20.7832 2.14752 20.7227 2.17498C20.6656 2.20245 20.3834 2.22991 20.0946 2.2354C19.8057 2.2409 19.5537 2.26287 19.5336 2.29033C19.5168 2.3123 18.8114 2.34526 17.9716 2.36723C17.1318 2.3892 16.4297 2.42765 16.4095 2.44962C16.3928 2.47708 15.9527 2.51003 15.4354 2.52102C14.5015 2.55398 14.0245 2.57595 13.1847 2.64186C12.9462 2.65833 12.4961 2.67481 12.1837 2.67481C11.8747 2.68031 11.6227 2.70228 11.6227 2.72974C11.6227 2.75171 11.2599 2.77368 10.8165 2.77917C10.3698 2.77917 9.97002 2.80664 9.92299 2.83959C9.8726 2.86705 9.32506 2.9055 8.70361 2.92198C8.08216 2.93846 7.5447 2.97141 7.50775 2.99888C7.47079 3.02634 7.1987 3.0593 6.9031 3.07577C6.60749 3.09225 6.32868 3.11971 6.28165 3.1307C6.20439 3.14718 4.96821 3.23506 4.64573 3.24055C4.56847 3.24604 4.49457 3.26252 4.48113 3.28449C4.4677 3.31196 4.37028 3.32843 4.26279 3.32843C4.15529 3.32843 4.06124 3.3504 4.05116 3.37787C4.02765 3.43279 3.71524 3.49321 3.46666 3.49321C3.36589 3.48772 3.26847 3.50969 3.24832 3.53715C3.2248 3.57011 3.12403 3.60306 3.02325 3.62503C2.73436 3.67447 2.60672 3.71841 2.56977 3.78981C2.51938 3.88868 2.35478 3.97656 2.14987 4.00952C1.86098 4.05346 1.67959 4.13036 1.67959 4.20725C1.67959 4.22922 1.71654 4.28964 1.76356 4.33907C1.8677 4.45442 1.8509 4.51484 1.69974 4.55878C1.63592 4.58075 1.57881 4.61371 1.57209 4.64117C1.56201 4.68511 1.49483 4.70708 1.19251 4.78398C1.15555 4.78947 1.1186 4.80595 1.10853 4.81144C1.09845 4.81693 1.0615 4.82242 1.02455 4.81693C0.927131 4.80045 0.789405 4.93228 0.789405 5.03114C0.789405 5.09156 0.819638 5.10804 0.89018 5.09706C0.947286 5.09156 1.1186 5.06959 1.27648 5.05861L1.56201 5.03664L1.24289 5.10804C0.853229 5.19043 0.772609 5.25634 0.792764 5.44309C0.802842 5.52548 0.792764 5.58041 0.765891 5.58041C0.745736 5.58041 0.702067 5.61336 0.675193 5.6573C0.644961 5.70124 0.517312 5.75068 0.393023 5.76715C0.174677 5.80011 0.0671834 5.8825 0.0671834 6.01981C0.0671834 6.05277 0.0806201 6.06925 0.0974159 6.04728C0.114212 6.0308 0.151163 6.05277 0.174677 6.09671C0.211628 6.15713 0.329199 6.17361 0.678552 6.16262C1.09509 6.15713 1.1354 6.16811 1.13204 6.2505C1.12868 6.3274 1.09845 6.34937 1.00103 6.34937C0.93049 6.34937 0.873384 6.37134 0.873384 6.4043C0.873384 6.43176 0.829715 6.45922 0.775968 6.45922C0.718862 6.45922 0.668475 6.48119 0.658397 6.50866C0.644961 6.53612 0.520671 6.57457 0.376227 6.59654C0.0671834 6.64597 0 6.69541 0 6.87117C0 7.00848 0.00335917 7.00848 0.298966 7.00848C0.463566 7.00848 0.604651 6.98651 0.611369 6.95356C0.624806 6.89314 1.12868 6.86018 1.16563 6.91511C1.17907 6.93708 1.15555 6.97004 1.11524 6.99201C1.07493 7.00848 1.04134 7.04144 1.04134 7.06341C1.04134 7.08538 1.00775 7.10186 0.964082 7.10186C0.72894 7.10735 0.705426 7.11834 0.705426 7.22819C0.705426 7.32156 0.72894 7.33804 0.866666 7.34353H1.02455L0.913694 7.43691C0.786046 7.53578 0.782687 7.67309 0.903617 7.72252C1.01111 7.76097 1.02455 7.84336 0.943927 7.9642C0.833074 8.12898 0.89018 8.21686 1.10853 8.21686C1.29328 8.21686 1.30336 8.22235 1.29664 8.34319C1.29328 8.41459 1.27648 8.50248 1.25633 8.54642C1.14212 8.84302 1.10517 9.09568 1.17571 9.09568C1.19586 9.09568 1.2093 9.12863 1.2093 9.16708C1.2093 9.23299 1.40413 9.56804 1.44444 9.56804C1.52842 9.57353 1.6124 9.65043 1.6124 9.72733C1.6124 9.77676 1.65271 9.87563 1.69974 9.94703C1.77364 10.0569 1.78372 10.1118 1.77028 10.3425C1.76356 10.4853 1.77364 10.6776 1.79044 10.7709C1.83075 10.9522 2.09948 11.4026 2.17002 11.4026C2.1969 11.4026 2.21705 11.4245 2.21705 11.4465C2.21705 11.5014 2.50594 11.6278 2.70077 11.6552C2.88217 11.6882 3.43307 11.6992 3.63798 11.6772C3.72532 11.6662 3.82945 11.6827 3.87312 11.7157C4.16873 11.9409 5.15633 12.0782 5.5863 11.9518C5.88863 11.864 6.14056 11.7102 6.2447 11.5454C6.29173 11.4685 6.37235 11.3861 6.42273 11.3531C6.50671 11.3037 6.98707 11.2048 7.08113 11.2158C7.10129 11.2213 7.12144 11.2103 7.12144 11.1884C7.12144 11.1664 7.16175 11.1444 7.21214 11.1389C7.31627 11.1279 7.68914 10.9906 7.84366 10.9082C7.90077 10.8808 8.1695 10.8423 8.44495 10.8259C8.72041 10.8094 8.95219 10.7874 8.96563 10.7764C8.9757 10.7654 9.18397 10.738 9.42247 10.716C10.0742 10.6556 10.1178 10.6501 10.2455 10.6171C10.353 10.5842 11.055 10.4524 11.4212 10.3919C11.6664 10.348 12.0325 10.2601 12.1938 10.2052C12.2778 10.1722 12.4592 10.1448 12.5969 10.1393C12.9395 10.1283 13.1948 10.0953 13.2284 10.0624C13.2418 10.0459 13.3527 10.0294 13.4736 10.0294C13.5912 10.0239 13.7424 9.99647 13.8062 9.969C13.907 9.93055 14.3 9.88112 14.8475 9.84267C14.9315 9.83169 15.1062 9.80972 15.2338 9.78775C15.3648 9.76578 15.7041 9.71085 15.9897 9.66142C16.6178 9.55706 16.6447 9.55156 16.6447 9.53509C16.6447 9.51312 16.8294 9.48565 17.1822 9.4527C17.3871 9.43073 17.5718 9.40876 17.5987 9.39228C17.6222 9.38129 18.0455 9.35383 18.5393 9.33735C19.0297 9.32087 19.4865 9.2989 19.5504 9.28243C19.6142 9.26595 19.7586 9.24947 19.8695 9.23849C20.2558 9.20553 20.8772 9.13962 20.9612 9.11765C21.0083 9.10117 21.2132 9.0792 21.4147 9.06272C21.838 9.02977 22.0798 9.0023 22.2108 8.96385C22.3015 8.94188 23.4168 8.87597 24.2532 8.84851C25.0124 8.82654 26.0134 8.76063 26.094 8.73317C26.1377 8.71669 26.3493 8.69472 26.5643 8.68373C26.9439 8.65627 27.3201 8.60683 27.4612 8.56289C27.4982 8.55191 27.6258 8.52994 27.7467 8.51346C27.8677 8.49698 28.002 8.46403 28.0491 8.43656C28.0961 8.4091 28.3077 8.35967 28.5194 8.32671C28.731 8.28826 29.0434 8.23883 29.208 8.21137C29.3759 8.1839 29.638 8.14546 29.7958 8.12898C29.9537 8.11799 30.2393 8.07954 30.4341 8.04659C31.2436 7.92026 31.5426 7.88181 31.8785 7.85435C32.2111 7.83238 32.8023 7.74449 32.9568 7.69506C32.9971 7.67858 33.1752 7.65661 33.3532 7.64563C33.5312 7.62915 33.7597 7.60169 33.8604 7.5907C33.9612 7.57422 34.3038 7.54676 34.6196 7.53028C34.9354 7.5138 35.231 7.48634 35.2746 7.47536C35.3183 7.45888 35.4628 7.43142 35.5904 7.42043C35.7214 7.40395 35.8726 7.37649 35.9263 7.3655C35.9834 7.34903 36.2018 7.32706 36.4134 7.31607C37.0584 7.27762 37.7403 7.2172 37.7571 7.20073C37.7672 7.18974 38.1602 7.16777 38.6305 7.1458C39.1007 7.12932 39.5845 7.10186 39.7054 7.09087C39.8263 7.07989 40.3168 7.05243 40.7971 7.03595C41.6403 7.00299 41.9628 6.98651 42.6111 6.93159C42.779 6.9206 43.2224 6.89314 43.602 6.87666C44.3142 6.84371 44.6904 6.81624 45.3488 6.75582C45.5604 6.73385 45.8124 6.71188 45.9031 6.70639C45.9971 6.70639 46.1852 6.68442 46.323 6.66245C46.4607 6.64048 46.6958 6.61302 46.8436 6.60203C47.7741 6.51415 48.2679 6.45373 48.3721 6.40979C48.4795 6.36585 48.7953 6.27247 49.0775 6.20107C49.1413 6.18459 49.2152 6.14614 49.2421 6.1077C49.2757 6.06925 49.7224 6.03629 50.6529 6.00883C51.402 5.98686 52.4333 5.93742 52.9405 5.90447C53.9281 5.83856 57.2503 5.74518 58.6343 5.73969C60.0552 5.7342 63.1322 5.81109 63.186 5.85504C63.2129 5.87701 63.3573 5.89898 63.5051 5.90447C63.7671 5.91545 65.0134 5.99235 66.2764 6.07474C66.6191 6.09671 66.9449 6.12967 66.9987 6.14614C67.0558 6.16262 67.6067 6.19009 68.2248 6.21206C69.3333 6.24501 69.8775 6.27247 71.1976 6.36036C71.5671 6.38233 72.4506 6.42077 73.1627 6.43725C74.4157 6.46472 75.5713 6.53063 75.8837 6.59105C75.9676 6.60752 76.2095 6.62949 76.4211 6.64597C77.2273 6.70639 78.1545 6.79427 78.2519 6.82174C78.309 6.83272 78.8229 6.86018 79.394 6.88215C79.9684 6.89863 80.4622 6.93159 80.4924 6.95905C80.5227 6.98651 80.7511 7.00848 80.9963 7.00848C81.564 7.00848 82.8103 7.10186 83.1395 7.17326C83.2772 7.20073 83.5661 7.23917 83.7777 7.25016C83.9893 7.26664 84.2547 7.29959 84.3656 7.31607C84.4764 7.33804 84.6511 7.35452 84.7519 7.36001C84.8526 7.371 84.9736 7.38747 85.0206 7.40945C85.1079 7.44789 85.4136 7.48634 85.9612 7.52479C86.1358 7.54127 86.4684 7.57972 86.7002 7.61267C86.932 7.64563 87.325 7.68957 87.5736 7.70605C87.8222 7.72252 88.0539 7.75548 88.0842 7.78294C88.1144 7.81041 88.2488 7.83238 88.3831 7.83238C88.6888 7.83238 89.9922 7.99166 90.0594 8.0356C90.1165 8.07405 90.1433 8.07954 90.7144 8.13447C91.1847 8.1839 91.2687 8.19489 91.6046 8.27179C91.7423 8.29925 92.0312 8.3377 92.2428 8.35417C92.4544 8.37065 92.6526 8.39812 92.6795 8.42009C92.7064 8.43656 92.7366 8.45853 92.7467 8.46403C92.7836 8.4805 93.3782 8.56289 93.5092 8.56839C93.5898 8.57388 93.6537 8.59036 93.6537 8.60683C93.6537 8.76063 97.7149 8.84851 97.8056 8.69472C97.819 8.67824 97.8526 8.67824 97.8829 8.7057C97.9299 8.73866 98.0038 8.74415 98.0307 8.71669C98.034 8.7057 98.0811 8.69472 98.1382 8.68373C98.1919 8.67275 98.2557 8.62331 98.2759 8.57937C98.296 8.52994 98.3397 8.50797 98.3834 8.52994C98.4271 8.54642 98.4573 8.53543 98.4573 8.49698C98.4573 8.45853 98.4674 8.44206 98.4842 8.45304C98.4976 8.46952 98.5547 8.42009 98.6084 8.34319C98.6656 8.26629 98.6891 8.22235 98.6622 8.24432C98.632 8.27728 98.6219 8.26629 98.6387 8.22784C98.6521 8.1894 98.6756 8.16193 98.6924 8.16193C98.7092 8.16193 98.763 8.13447 98.8134 8.10701C98.8973 8.05208 98.9007 8.0411 98.8436 7.97518C98.7865 7.90927 98.7865 7.90378 98.8402 7.87082C98.8738 7.84885 98.9141 7.84885 98.9343 7.86533C98.9981 7.93124 99.025 7.76097 98.9712 7.62915C98.9343 7.54127 98.894 7.50282 98.8302 7.5138C98.763 7.52479 98.7462 7.50831 98.7529 7.42592C98.7596 7.36001 98.7495 7.33804 98.7227 7.371C98.6958 7.39297 98.6891 7.38747 98.7059 7.34353C98.726 7.2941 98.7428 7.2941 98.7798 7.34353C98.8066 7.37649 98.8369 7.39297 98.8503 7.371C98.8604 7.35452 98.8537 7.33804 98.8302 7.33804C98.7999 7.33804 98.7898 7.28861 98.8033 7.19523C98.8201 7.04693 98.7428 6.87666 98.6857 6.93159C98.6656 6.95356 98.6588 6.94257 98.6723 6.90962C98.6823 6.87666 98.679 6.83821 98.6588 6.81624C98.6387 6.79977 98.6152 6.82174 98.6051 6.86568C98.595 6.91511 98.5681 6.95356 98.548 6.95356C98.5211 6.95356 98.5211 6.93708 98.548 6.89314C98.5681 6.86018 98.5782 6.79427 98.5681 6.75033C98.5581 6.7009 98.5413 6.68991 98.5278 6.72287C98.5144 6.75582 98.4606 6.73935 98.3834 6.67893C98.3162 6.62949 98.1583 6.56908 98.0307 6.5526C97.6544 6.49767 97.4831 6.44824 97.4831 6.39331C97.4831 6.36585 97.4697 6.36036 97.4495 6.37683C97.4294 6.39331 97.426 6.37134 97.4361 6.3274C97.4462 6.27797 97.4395 6.23952 97.4193 6.23952C97.3991 6.23952 97.3823 6.26149 97.3823 6.29444C97.3823 6.32191 97.3555 6.34937 97.3252 6.34937C97.2749 6.34937 97.2715 6.33839 97.3152 6.29444C97.3588 6.2505 97.3588 6.23952 97.3118 6.23952C97.2816 6.23952 97.2379 6.20107 97.2144 6.15713C97.1909 6.11319 97.1606 6.08573 97.1472 6.1022C97.1338 6.11319 97.0834 6.06925 97.033 5.99784C96.9658 5.90447 96.8953 5.87151 96.7542 5.86053C96.6501 5.85504 96.5358 5.82208 96.5022 5.79462C96.4687 5.76715 96.425 5.75617 96.4082 5.77265C96.3511 5.83307 96.1126 5.7342 96.0353 5.61336C95.9917 5.54745 95.9043 5.45957 95.8472 5.42112C95.7867 5.38267 95.7364 5.31676 95.7364 5.27282C95.7364 5.14649 95.8438 5.09706 96.0656 5.12452C96.1999 5.141 96.2738 5.13001 96.2738 5.09156C96.2738 5.05861 96.2738 5.01467 96.2738 4.9927C96.2738 4.97073 96.2503 4.94875 96.2167 4.94326C96.1831 4.93228 96.1395 4.88834 96.1193 4.8389C96.0958 4.78947 96.042 4.74004 95.9984 4.72905C95.8438 4.6906 95.7767 4.63568 95.7431 4.51484C95.7028 4.37203 95.5516 4.31161 95.1183 4.28415C94.9705 4.27316 94.8294 4.25119 94.7991 4.23471C94.6917 4.1688 94.5002 4.14683 94.48 4.19627C94.4699 4.22922 94.4296 4.24021 94.396 4.22373C94.3625 4.20725 94.3221 4.22373 94.3087 4.25669C94.2953 4.30063 94.255 4.28415 94.1878 4.20176C94.1105 4.11388 94.0601 4.0974 93.9627 4.11937C93.8922 4.14134 93.7578 4.11937 93.6436 4.06994C93.5361 4.026 93.4118 3.98755 93.3681 3.98755C93.3211 3.98755 93.2842 3.97107 93.2842 3.94361C93.2842 3.92164 93.0591 3.89967 92.7803 3.89417C92.4981 3.88868 92.2495 3.85572 92.2092 3.82277C92.1723 3.78981 92.0749 3.77883 91.9909 3.79531C91.9002 3.81178 91.8397 3.8008 91.8397 3.76784C91.8397 3.74038 91.7725 3.71292 91.6886 3.71292C91.5777 3.71292 91.5374 3.73489 91.5374 3.79531C91.5374 3.83925 91.5139 3.87769 91.487 3.87769C91.4601 3.87769 91.4366 3.83925 91.4366 3.79531C91.4366 3.74587 91.4064 3.71292 91.356 3.71292C91.309 3.71292 91.2619 3.68545 91.2519 3.65799C91.2183 3.57011 91.0772 3.59208 91.0134 3.69644C90.9663 3.77883 90.9529 3.77883 90.9193 3.70742C90.8924 3.6525 90.7984 3.62503 90.5901 3.61405C90.4289 3.60856 90.1971 3.58109 90.0728 3.55363C89.9485 3.53166 89.7906 3.52617 89.7167 3.54814C89.6462 3.57011 89.579 3.57011 89.5723 3.54265C89.5521 3.4987 89.4446 3.51518 89.3808 3.58109C89.3573 3.60306 89.3539 3.59757 89.3674 3.55912C89.3942 3.48772 89.2632 3.44378 88.934 3.41632C88.8064 3.40533 88.5511 3.36688 88.3663 3.32843C88.101 3.27351 88.0304 3.27351 88.0103 3.33393C87.9901 3.38336 87.9565 3.38336 87.8658 3.31196C87.802 3.25703 87.6979 3.21858 87.634 3.22407C87.325 3.23506 86.6028 3.16366 86.5222 3.11422C86.4079 3.04282 86.0955 3.03183 86.0955 3.10324C86.0955 3.1307 86.0552 3.16915 86.0082 3.18563C85.9444 3.21309 85.9041 3.19661 85.8638 3.11422C85.7899 2.97691 85.4741 2.92198 85.417 3.03733C85.3733 3.12521 85.1919 3.08127 85.1382 2.97141C85.0911 2.87255 84.9131 2.8341 84.3723 2.80664C84.117 2.79016 83.8785 2.75171 83.8415 2.71875C83.8046 2.6858 83.6937 2.66383 83.5997 2.67481C83.5023 2.68031 83.388 2.66932 83.341 2.65284C83.247 2.61989 82.7666 2.57045 81.4935 2.47159C81.2617 2.45511 80.9896 2.43314 80.8888 2.42215C80.7276 2.40567 79.6762 2.3123 79.4444 2.29582C79.3974 2.29582 79.2697 2.27934 79.1589 2.26287C78.8599 2.21893 78.3493 2.16949 78.1007 2.15301C76.8242 2.07612 76.5622 2.04865 76.4883 2.01021C76.411 1.96627 75.8669 1.93331 73.9017 1.8674C73.4483 1.85092 72.8537 1.81247 72.5749 1.78501C72.2994 1.75205 71.641 1.71361 71.1136 1.70262C70.5896 1.68614 70.1428 1.65319 70.1227 1.62572C70.1059 1.60375 69.8707 1.57629 69.602 1.5708C69.3333 1.5653 68.8664 1.53784 68.5607 1.50489C68.255 1.47742 67.7679 1.43897 67.479 1.42799C67.1868 1.41151 66.9483 1.37856 66.9483 1.35659C66.9483 1.32912 66.8542 1.30715 66.74 1.31264C66.263 1.31814 65.0201 1.23026 64.9697 1.19181C64.9395 1.16434 64.6103 1.13688 64.2408 1.13688C63.8679 1.13139 63.5286 1.11491 63.485 1.10393C63.4413 1.08745 63.2397 1.05998 63.0348 1.03801C62.531 0.98858 52.9573 0.98858 52.4534 1.04351C51.7581 1.11491 50.5522 1.14237 50.5118 1.08745C50.4883 1.05449 50.3204 1.03252 50.1356 1.03801C49.4436 1.04351 47.5793 0.950132 47.5323 0.911684C47.4852 0.873236 42.9839 0.807324 42.6951 0.84028ZM95.0948 4.95425C95.1216 4.99819 94.8126 4.96523 94.7286 4.92129C94.6749 4.88834 94.7252 4.88284 94.863 4.90481C94.9839 4.92129 95.088 4.94326 95.0948 4.95425ZM40.8912 5.83856C40.7938 5.84954 40.6292 5.84954 40.5217 5.83856C40.4142 5.82757 40.4948 5.82208 40.6963 5.82208C40.9013 5.82208 40.9886 5.82757 40.8912 5.83856ZM36.7258 6.11319C36.6452 6.12417 36.5175 6.12417 36.4403 6.11319C36.3597 6.1022 36.4235 6.09122 36.5814 6.09122C36.7392 6.09122 36.8031 6.1022 36.7258 6.11319ZM34.4315 6.29444C34.4046 6.32191 34.3139 6.34388 34.2299 6.34388C34.1057 6.33839 34.0922 6.33289 34.1628 6.29444C34.2904 6.22853 34.4953 6.22853 34.4315 6.29444ZM33.669 6.38782C33.6253 6.3988 33.5514 6.3988 33.501 6.38782C33.4473 6.37683 33.4842 6.36585 33.5749 6.36585C33.669 6.36585 33.7093 6.37683 33.669 6.38782ZM32.7452 6.49767C32.6948 6.50866 32.6041 6.50866 32.5436 6.49767C32.4832 6.48669 32.5235 6.4757 32.6343 6.4757C32.7452 6.4757 32.7956 6.48669 32.7452 6.49767ZM32.1976 6.56908C32.1002 6.63499 31.6132 6.63499 31.677 6.56908C31.7039 6.54161 31.8483 6.51964 31.9961 6.51964C32.1775 6.51964 32.2413 6.53612 32.1976 6.56908ZM31.2369 6.64597C31.2235 6.66245 31.0253 6.68991 30.2493 6.76681C30.0847 6.78329 29.8865 6.80526 29.8126 6.81624C29.7387 6.82723 29.5338 6.85469 29.3591 6.87117C29.1845 6.89314 28.9863 6.9206 28.9225 6.93708C28.8586 6.95356 28.7612 6.96454 28.7041 6.96454C28.6168 6.97004 28.3212 7.01947 27.992 7.08538C27.9315 7.10186 27.871 7.12383 27.8542 7.14031C27.8408 7.15679 27.7165 7.17326 27.5855 7.17876C27.4511 7.18425 27.3336 7.21171 27.3235 7.23917C27.3134 7.26114 27.2933 7.27213 27.2765 7.25565C27.2597 7.23917 27.1488 7.25016 27.0346 7.27762C26.917 7.31058 26.6416 7.34353 26.4199 7.3655C26.1982 7.38198 25.9026 7.40395 25.7648 7.42043C25.4625 7.45339 24.8176 7.49733 24.2935 7.5193C23.793 7.54127 23.9207 7.45339 24.4884 7.38747C24.7201 7.36001 24.9922 7.32706 25.093 7.31607C25.1938 7.29959 25.4289 7.27762 25.6137 7.26114C25.7984 7.23917 25.9966 7.2172 26.0504 7.20073C26.1075 7.18425 26.2284 7.16228 26.3191 7.1458C26.4132 7.12932 26.571 7.09087 26.6718 7.06341C26.7726 7.03045 26.9238 6.9975 27.0077 6.98651C27.1253 6.97004 27.8878 6.84371 28.1834 6.78878C28.2103 6.78329 28.6369 6.76132 29.1307 6.73935C29.6245 6.71738 30.0411 6.68442 30.0511 6.66245C30.0646 6.64048 30.34 6.624 30.6625 6.624C30.9883 6.624 31.2436 6.63499 31.2369 6.64597ZM21.9522 7.70055C21.7103 7.74449 21.4382 7.74449 21.455 7.70605C21.4617 7.68408 21.5995 7.67309 21.7607 7.67858C21.9219 7.67858 22.0093 7.69506 21.9522 7.70055ZM21.0788 7.83238C20.9881 7.85984 20.7765 7.88181 20.6152 7.88181C20.4506 7.8873 20.2927 7.90927 20.2592 7.93674C20.2256 7.96969 20.0442 7.99715 19.8527 8.00265C19.6579 8.00814 19.4597 8.03011 19.4093 8.05757C19.3555 8.07954 19.3085 8.07954 19.2984 8.04659C19.285 8.01913 19.2816 7.99715 19.2884 7.99166C19.2951 7.99166 19.5033 7.9642 19.7519 7.93124C20.0005 7.90378 20.3129 7.85984 20.4406 7.84336C20.5716 7.82139 20.8033 7.79942 20.9612 7.79393C21.2132 7.78844 21.2266 7.79393 21.0788 7.83238Z" fill="#FFCC00"/>
<path d="M76.0885 1.31296C76.0347 1.42262 76.1053 1.461 76.3538 1.461C76.5319 1.461 76.589 1.41713 76.589 1.27458C76.589 1.26361 76.4848 1.25265 76.3605 1.24716C76.1959 1.24168 76.1187 1.25813 76.0885 1.31296Z" fill="#FFCC00"/>
<path d="M76.7133 1.37882C76.6931 1.46655 76.8409 1.55976 76.9619 1.53783C77.1567 1.50493 77.234 1.46107 77.2172 1.38979C77.2004 1.30755 76.7301 1.29658 76.7133 1.37882Z" fill="#FFCC00"/>
<path d="M77.2944 1.4175C77.2944 1.43943 77.3247 1.46136 77.3616 1.46136C77.3986 1.46136 77.4288 1.48329 77.4288 1.51619C77.4288 1.5436 77.4926 1.57102 77.5732 1.57102C77.6539 1.57102 77.7378 1.60392 77.7614 1.63682C77.795 1.69164 77.8117 1.69164 77.8218 1.6423C77.8285 1.60392 77.8554 1.58747 77.8789 1.60392C77.9024 1.62037 77.9428 1.59295 77.9663 1.54909C77.9999 1.47781 77.9999 1.45588 77.9629 1.43943C77.8756 1.39008 77.2944 1.37363 77.2944 1.4175Z" fill="#FFCC00"/>
<path d="M78.2956 1.45049C78.1747 1.46694 78.1243 1.5766 78.1948 1.64788C78.2251 1.67529 78.8196 1.73012 79.4713 1.76302C79.7535 1.77398 79.8576 1.7356 79.7972 1.63691C79.7871 1.62046 79.6695 1.59305 79.5351 1.58208C79.1992 1.56015 78.5677 1.48339 78.4871 1.45597C78.4501 1.43952 78.3628 1.43952 78.2956 1.45049Z" fill="#FFCC00"/>
<path d="M79.8745 1.68645C79.7871 1.77418 79.9014 1.84546 80.1365 1.84546C80.3784 1.84546 80.4086 1.82353 80.3582 1.7029C80.3347 1.64259 79.9349 1.62614 79.8745 1.68645Z" fill="#FFCC00"/>
<path d="M80.4856 1.75239C80.4856 1.89494 80.6334 1.95526 80.9223 1.94429C81.0802 1.93332 81.2179 1.90591 81.2313 1.87301C81.2481 1.83463 81.2582 1.84011 81.2582 1.87849C81.2582 1.91687 81.3623 1.94429 81.5538 1.94429C81.7151 1.94977 81.8763 1.96074 81.9132 1.96622C81.9502 1.97719 81.9838 1.94429 81.9905 1.88946C82.0006 1.8127 81.9603 1.80173 81.6915 1.79625C81.5202 1.79077 81.3623 1.76335 81.3455 1.73594C81.3254 1.70304 81.1272 1.68111 80.8988 1.68111C80.5763 1.68111 80.4856 1.69756 80.4856 1.75239Z" fill="#FFCC00"/>
<path d="M82.7698 2.01044C82.7396 2.09817 82.743 2.10913 82.7866 2.0872C82.8135 2.06527 82.837 2.02141 82.837 1.97754C82.837 1.86788 82.8135 1.88433 82.7698 2.01044Z" fill="#FFCC00"/>
<path d="M83.1596 2.00495C83.1328 2.07075 83.2335 2.13654 83.3679 2.14751C83.4888 2.15847 83.5459 2.08171 83.472 2.00495C83.4116 1.94464 83.1831 1.94464 83.1596 2.00495Z" fill="#FFCC00"/>
<path d="M83.5762 2.12051C83.5762 2.14778 83.6131 2.17505 83.6602 2.17505C83.7072 2.17505 83.7441 2.14778 83.7441 2.12051C83.7441 2.08778 83.7072 2.06596 83.6602 2.06596C83.6131 2.06596 83.5762 2.08778 83.5762 2.12051Z" fill="#FFCC00"/>
<path d="M86.2971 2.53214C86.3206 2.576 86.3576 2.61438 86.3811 2.61438C86.4046 2.61438 86.4416 2.576 86.4651 2.53214C86.502 2.46086 86.4886 2.44989 86.3811 2.44989C86.2736 2.44989 86.2602 2.46086 86.2971 2.53214Z" fill="#FFCC00"/>
<path d="M87.288 2.6091C87.278 2.62007 87.2712 2.65845 87.2712 2.69135C87.2712 2.72424 87.288 2.71328 87.3048 2.66941C87.325 2.61458 87.3384 2.6091 87.3384 2.65296C87.3384 2.69135 87.3619 2.72424 87.3888 2.72424C87.4157 2.72424 87.4392 2.69135 87.4392 2.64748C87.4392 2.5762 87.325 2.54331 87.288 2.6091Z" fill="#FFCC00"/>
<path d="M96.1328 4.52117C96.032 4.56503 96.0656 4.70211 96.2 4.79532C96.2672 4.83918 96.4183 4.88305 96.5326 4.88853C96.6501 4.88853 96.7442 4.91046 96.7442 4.93239C96.7442 4.95981 96.7744 4.97626 96.8114 4.97626C96.9088 4.97626 96.8953 4.91594 96.7543 4.71307C96.6233 4.53214 96.5124 4.49376 96.3579 4.59245C96.3108 4.61986 96.2773 4.62535 96.2873 4.59793C96.3041 4.55955 96.2202 4.46086 96.1966 4.48827C96.1933 4.49376 96.163 4.50472 96.1328 4.52117Z" fill="#FFCC00"/>
<path d="M96.3408 5.04824C96.3408 5.08642 96.3979 5.11914 96.4651 5.13005C96.6062 5.14641 96.5995 5.10278 96.445 5.03187C96.3711 4.99915 96.3408 5.0046 96.3408 5.04824Z" fill="#FFCC00"/>
</svg>
